<?xml version="1.0" standalone="no"?>
<!DOCTYPE svg PUBLIC "-//W3C//DTD SVG 20010904//EN"
 "http://www.w3.org/TR/2001/REC-SVG-20010904/DTD/svg10.dtd">
<svg version="1.0" xmlns="http://www.w3.org/2000/svg"
 width="300.000000pt" height="175.000000pt" viewBox="0 0 300.000000 175.000000"
 preserveAspectRatio="xMidYMid meet">
<metadata>
Created by potrace 1.10, written by Peter Selinger 2001-2011
</metadata>
<g transform="translate(0.000000,175.000000) scale(0.100000,-0.100000)"
fill="#000000" stroke="none">
<path d="M867 1713 c-13 -13 -7 -22 19 -25 l27 -3 -28 -27 c-26 -27 -27 -28
-6 -28 11 0 21 6 21 14 0 8 4 16 8 18 5 2 12 15 16 31 6 25 4 27 -22 27 -16 0
-32 -3 -35 -7z"/>
<path d="M990 1700 c0 -5 -14 -10 -31 -10 -41 0 -29 -15 14 -18 31 -2 35 0 30
18 -6 21 -13 27 -13 10z"/>
<path d="M1068 1702 c-24 -5 -23 -28 2 -35 12 -3 24 1 30 11 8 15 10 15 10 -3
1 -20 1 -20 10 0 7 17 9 17 9 3 1 -24 21 -23 21 1 0 14 -9 20 -32 23 -18 2
-41 2 -50 0z"/>
<path d="M2398 1688 c-2 -13 -1 -36 3 -53 6 -29 7 -29 8 -4 1 22 5 26 25 24
15 -2 27 3 30 12 5 12 0 14 -24 11 -26 -4 -29 -2 -24 14 3 10 1 18 -4 18 -5 0
-11 -10 -14 -22z"/>
<path d="M2500 1686 c0 -23 3 -24 63 -24 34 0 67 -1 72 -2 31 -7 42 1 37 25
-4 25 -5 25 -19 6 -8 -12 -20 -18 -29 -14 -13 5 -13 7 -2 14 7 5 9 9 5 9 -4 0
-18 -7 -31 -16 -18 -11 -26 -12 -31 -3 -6 8 -10 8 -16 -2 -7 -11 -9 -11 -9 2
0 9 -7 20 -16 23 -23 9 -24 8 -24 -18z"/>
<path d="M2704 1698 c-3 -4 2 -8 10 -8 8 0 17 -10 19 -22 4 -23 4 -23 6 -1 0
12 9 23 19 25 10 3 3 6 -16 9 -18 3 -35 2 -38 -3z"/>
<path d="M2809 1694 c-1 -10 -1 -23 0 -27 1 -5 -4 -5 -11 -1 -21 13 -38 13
-38 0 0 -8 14 -13 35 -14 33 -1 35 0 29 26 -9 35 -14 40 -15 16z"/>
<path d="M2925 1691 c-4 -13 -1 -27 8 -36 20 -20 28 2 11 34 -12 23 -12 23
-19 2z"/>
<path d="M1750 1694 c0 -4 8 -13 18 -20 16 -13 16 -15 -7 -34 -23 -20 -23 -20
-2 -20 12 0 20 4 16 9 -3 5 -1 12 5 16 6 3 13 -1 16 -9 4 -10 19 -16 40 -16
33 0 34 1 34 40 0 29 -4 40 -15 40 -11 0 -14 -9 -10 -35 2 -19 1 -35 -4 -35
-12 0 -51 45 -51 58 0 7 -9 12 -20 12 -11 0 -20 -3 -20 -6z"/>
<path d="M1884 1678 c3 -13 6 -31 6 -40 0 -29 29 -21 36 10 4 15 11 33 17 40
6 8 5 12 -5 12 -8 0 -15 -11 -16 -27 -3 -35 -12 -43 -13 -12 -1 13 -1 27 0 32
0 4 -6 7 -15 7 -12 0 -15 -6 -10 -22z"/>
<path d="M1960 1676 c0 -7 -3 -28 -6 -45 -4 -20 -3 -31 5 -31 6 0 11 11 11 24
0 14 5 28 10 31 15 9 12 22 -5 29 -9 3 -15 0 -15 -8z"/>
<path d="M2030 1670 c0 -15 7 -20 25 -20 14 0 25 6 25 13 0 8 3 8 8 2 9 -14
42 -13 41 0 0 6 -7 9 -15 9 -8 -1 -14 1 -14 5 0 15 -30 7 -30 -8 -1 -14 -2
-13 -11 2 -13 23 -29 22 -29 -3z"/>
<path d="M2166 1683 c-11 -11 -7 -93 5 -93 7 0 8 11 4 30 -7 30 -1 35 34 31 7
-2 11 4 9 11 -3 7 -9 13 -14 13 -5 0 -14 3 -20 7 -6 4 -14 5 -18 1z"/>
<path d="M2275 1680 c-9 -15 -1 -23 30 -26 19 -2 25 2 25 17 0 21 -15 26 -26
8 -5 -8 -9 -8 -14 1 -6 9 -9 9 -15 0z"/>
<path d="M2840 1664 c0 -16 38 -14 44 2 3 7 -5 12 -20 12 -13 0 -24 -6 -24
-14z"/>
<path d="M653 1595 c-3 -9 -3 -36 -1 -60 3 -24 2 -49 -3 -56 -4 -7 -3 -19 2
-25 6 -8 6 -85 -2 -220 -15 -280 -7 -845 14 -934 8 -36 18 -73 22 -82 7 -17
-8 -18 -221 -18 -125 0 -224 -3 -221 -7 4 -3 -2 -12 -13 -20 -11 -8 -20 -25
-20 -38 0 -41 27 -50 131 -46 52 2 88 5 81 8 -6 3 -9 10 -5 16 4 7 8 23 8 37
0 24 -2 25 -85 31 -55 3 -8 6 136 7 164 2 223 -1 233 -11 11 -9 13 -9 7 1 -4
6 -2 12 3 12 6 0 11 -21 11 -50 l0 -50 303 0 c222 0 306 -3 315 -12 9 -9 12
-9 12 0 0 10 163 12 780 10 429 -2 780 0 780 5 0 4 -349 7 -776 7 -704 0 -776
1 -770 16 3 9 6 18 6 20 0 2 286 4 636 4 350 0 639 2 642 5 3 3 -281 5 -631 5
-418 0 -637 3 -637 10 0 6 26 11 58 12 l57 1 -55 8 c-30 4 288 6 707 5 419 -1
761 -1 760 0 -8 6 -290 13 -558 14 l-317 0 -24 88 -23 87 465 5 465 5 -391 3
c-342 2 -393 4 -398 17 -3 9 0 18 7 21 7 2 185 3 395 2 210 -2 382 0 382 5 0
4 -169 7 -376 7 -239 0 -382 4 -395 10 -53 29 -14 32 376 28 217 -1 395 0 395
5 0 6 -697 12 -859 7 -48 -1 -53 0 -46 17 36 90 45 128 36 161 -13 44 0 58 50
54 l39 -4 0 -57 -1 -56 -40 45 -41 45 36 -53 c26 -37 36 -64 38 -95 1 -38 2
-39 5 -8 l4 34 28 -34 28 -33 173 74 c95 41 168 76 163 77 -5 2 -77 -26 -159
-63 -82 -36 -156 -68 -164 -70 -9 -3 -25 11 -40 33 -21 32 -25 48 -22 101 l3
62 146 0 c144 0 146 0 199 -30 40 -23 54 -38 59 -60 7 -31 25 -42 25 -15 0 18
5 18 29 5 14 -7 24 -3 46 20 23 24 37 30 72 30 37 0 43 -3 43 -21 0 -12 4 -17
11 -14 6 4 8 13 5 21 -4 10 3 14 24 14 17 0 30 -5 30 -11 0 -5 -4 -7 -10 -4
-5 3 -10 0 -10 -8 0 -8 -7 -20 -15 -27 -16 -14 -21 -50 -6 -50 5 0 12 12 16
27 8 39 39 73 64 73 14 0 29 -13 43 -35 11 -20 23 -34 26 -31 2 3 -4 18 -14
33 -10 15 -17 31 -16 36 1 4 -4 7 -10 7 -9 0 -8 4 2 10 13 8 13 10 -1 10 -9 0
-24 9 -34 20 -18 19 -17 20 4 20 12 0 39 -11 59 -25 l37 -25 7 22 c6 23 9 162
3 143 -2 -5 -6 -40 -10 -78 l-7 -67 -30 17 c-36 22 -60 47 -34 37 13 -5 16 0
15 22 -1 16 -3 22 -6 12 -5 -20 -83 -31 -83 -11 0 6 4 14 8 17 5 3 9 18 10 34
0 26 -3 29 -29 27 -31 -2 -47 9 -29 20 6 4 16 3 23 -2 16 -13 59 -14 52 -2 -4
5 -14 9 -25 9 -27 0 -35 30 -7 31 19 1 18 2 -8 14 -38 18 -55 18 -55 2 0 -9
-10 -12 -30 -9 -18 3 -30 0 -30 -7 0 -6 -10 -11 -22 -10 -22 0 -22 1 -3 9 19
8 19 9 -2 9 -12 1 -25 -3 -28 -9 -3 -5 -12 -10 -18 -10 -7 0 -6 4 3 10 13 9
13 10 0 10 -8 1 2 10 22 20 20 11 47 19 60 17 14 -1 22 3 20 11 -1 7 10 12 30
13 18 1 25 3 16 6 -27 7 -22 33 6 33 14 0 28 -5 31 -10 3 -6 12 -10 18 -10 24
1 -39 40 -64 40 -22 0 -26 -4 -22 -24 5 -25 -16 -40 -42 -30 -21 8 -14 38 10
46 19 6 19 6 -1 7 -21 1 -22 6 -23 106 l-2 105 106 0 c100 0 106 -1 114 -22 7
-20 9 -18 15 16 13 70 53 66 -638 64 l-621 -3 501 -2 c494 -3 502 -3 507 -23
5 -21 3 -21 -501 -20 -279 1 -511 0 -517 -1 -5 -1 21 -5 59 -8 l68 -6 -96 -88
c-86 -80 -99 -88 -130 -85 l-34 3 34 59 c19 32 33 60 31 63 -3 2 -18 -20 -35
-50 -40 -70 -62 -93 -73 -75 -7 10 -11 10 -21 0 -9 -9 -9 -12 1 -12 8 0 11 -6
7 -16 -5 -14 -4 -15 9 -4 12 10 15 10 15 -4 0 -9 -7 -16 -15 -16 -15 0 -21
-21 -9 -33 8 -7 34 17 34 32 0 6 5 11 11 11 6 0 9 -9 6 -19 -4 -15 -1 -18 12
-13 9 3 20 10 24 16 4 6 7 0 5 -14 -2 -19 -11 -26 -33 -31 -16 -4 -24 -7 -17
-8 20 -2 9 -75 -12 -79 -17 -4 -22 13 -6 23 7 4 6 14 -2 28 -6 12 -9 22 -7 22
2 0 -6 12 -19 25 -16 17 -21 19 -17 7 5 -13 3 -16 -8 -12 -10 5 -14 0 -12 -17
1 -13 3 -33 4 -45 0 -13 6 -23 12 -23 6 0 8 9 4 20 -4 12 -2 20 6 20 9 0 8 4
-1 15 -10 13 -9 15 9 15 18 0 20 -3 11 -19 -13 -25 -13 -34 1 -25 8 4 9 -1 4
-16 -12 -37 -12 -79 -1 -83 8 -3 8 -8 1 -18 -5 -8 -2 -6 8 4 9 11 17 24 17 31
0 6 -5 4 -10 -4 -8 -12 -10 -10 -10 9 0 17 4 22 16 17 8 -3 13 -2 10 3 -3 5 1
11 9 15 8 3 17 23 21 45 5 31 11 39 25 38 11 -1 19 -4 19 -7 0 -10 54 -4 57 7
4 11 -43 27 -55 19 -4 -2 -8 4 -8 14 0 14 6 18 21 16 11 -2 19 -9 17 -16 -1
-6 2 -9 8 -5 14 9 13 35 -2 36 -7 0 -2 4 10 10 15 6 30 5 40 -1 15 -8 15 -9
-2 -10 -13 0 -16 -4 -11 -17 4 -10 7 -29 6 -43 -1 -19 2 -21 11 -12 17 17 35
15 35 -3 0 -11 -9 -15 -32 -13 -44 3 -52 -6 -49 -54 3 -32 1 -38 -6 -23 -8 19
-9 19 -9 -2 -1 -12 4 -25 9 -28 6 -4 8 -11 4 -16 -3 -5 -10 -7 -15 -4 -5 4 -6
-2 -2 -11 5 -13 3 -16 -10 -11 -13 5 -17 0 -18 -21 0 -15 -4 -36 -9 -47 -8
-18 -9 -17 -9 8 -1 18 -6 27 -18 27 -13 0 -11 6 12 30 16 16 26 32 24 35 -3 2
-21 -11 -39 -30 -54 -55 -99 -41 -86 27 6 38 -10 56 -17 19 -10 -51 -36 -81
-68 -81 -21 0 -29 5 -29 18 0 24 17 48 27 38 4 -5 2 -11 -4 -13 -7 -3 -13 -11
-13 -20 0 -12 2 -12 16 1 10 11 15 30 13 55 -2 23 3 46 11 56 23 28 21 45 -6
45 -27 0 -32 -15 -8 -24 8 -3 12 -11 8 -17 -4 -8 -9 -7 -15 2 -6 10 -9 11 -9
2 0 -7 -5 -13 -11 -13 -5 0 -7 5 -3 12 10 15 15 62 7 54 -4 -4 -12 -22 -19
-41 -11 -34 -8 -40 19 -36 4 0 7 -8 7 -19 0 -11 -4 -20 -10 -20 -5 0 -10 7
-10 15 0 8 -11 17 -25 21 -14 3 -25 10 -25 15 0 12 -27 11 -35 -1 -4 -6 -3 -9
2 -8 4 1 24 -3 42 -10 30 -11 33 -14 20 -27 -7 -7 -40 -27 -71 -44 l-58 -30 0
50 c0 45 2 50 19 44 15 -5 23 2 35 27 17 36 62 65 69 44 2 -6 9 -1 15 10 9 18
8 24 -5 35 -14 12 -16 12 -8 -1 8 -13 6 -13 -8 -1 -9 7 -14 18 -10 24 3 6 1 7
-5 3 -12 -7 -35 27 -25 38 3 3 1 6 -6 6 -7 0 -9 5 -6 10 10 15 35 12 35 -5 0
-8 7 -15 15 -15 8 0 15 5 15 11 0 5 -4 7 -10 4 -5 -3 -10 -2 -10 4 0 5 6 12
13 14 6 3 -5 6 -25 6 -20 1 -40 6 -44 12 -3 6 -17 8 -33 4 -14 -4 -23 -3 -19
1 4 4 0 13 -10 21 -9 8 -11 11 -3 7 10 -5 11 -1 6 17 -4 13 -12 30 -18 38 -16
20 18 41 67 41 23 1 55 7 71 15 36 16 21 19 -22 5 -19 -7 -38 -7 -54 -1 -24
10 -19 13 26 16 11 1 37 5 58 9 43 10 55 3 37 -19 -10 -13 -9 -15 8 -15 13 0
19 5 16 13 -3 8 18 18 66 31 73 18 106 16 54 -5 -120 -46 -153 -57 -158 -52
-3 4 -6 1 -6 -5 0 -6 17 -12 38 -14 l37 -3 -60 -22 c-33 -12 -77 -28 -97 -36
-44 -15 -65 -33 -28 -23 33 10 41 10 65 1 20 -8 20 -8 0 8 -19 14 -18 16 24
27 64 17 151 57 151 69 0 6 -5 11 -11 11 -5 0 -8 -4 -5 -8 3 -5 -9 -9 -27 -9
-32 -1 -32 -1 13 20 24 11 67 23 95 27 27 4 40 8 27 9 -42 2 -12 21 33 21 l44
0 -57 -52 c-31 -29 -62 -60 -69 -68 -13 -17 -74 -21 -86 -5 -5 5 -6 1 -3 -10
4 -14 -4 -30 -25 -52 -36 -40 -27 -44 13 -6 40 38 46 21 9 -26 -26 -33 -29
-41 -18 -53 12 -11 12 -16 1 -26 -19 -18 -32 -15 -45 11 -11 20 -11 21 5 8 14
-12 16 -12 11 1 -4 10 -20 16 -47 16 -37 1 -38 0 -22 -13 11 -8 23 -15 28 -15
5 0 14 -7 20 -15 6 -9 24 -16 40 -18 24 -2 30 2 33 23 2 13 9 28 16 32 8 5 3
8 -13 9 -14 0 -19 3 -12 6 6 2 12 13 12 23 0 20 143 165 163 165 6 0 21 14 32
30 l21 30 509 5 510 5 -505 4 c-278 2 -509 3 -513 2 -5 -1 -6 3 -2 9 3 6 11 8
16 5 5 -4 9 1 9 9 0 12 17 16 88 19 48 1 -159 4 -460 5 -401 1 -549 5 -554 14
-4 7 -3 8 4 4 7 -4 12 -1 12 8 0 9 -9 16 -20 16 -17 0 -20 -7 -20 -50 l0 -50
98 -2 97 -2 -105 -6 -105 -6 117 -2 c92 -2 116 -5 112 -15 -3 -9 6 -13 31 -13
39 0 47 12 13 19 -13 2 41 5 120 6 l142 1 -21 -21 c-11 -11 -36 -27 -55 -35
-30 -13 -33 -17 -24 -35 6 -11 18 -23 26 -26 12 -5 13 -7 3 -14 -10 -6 -10
-12 4 -27 9 -10 17 -35 17 -54 0 -23 6 -38 15 -42 22 -8 18 -26 -5 -26 -11 0
-20 5 -20 10 0 7 -20 10 -50 9 -27 -2 -47 -5 -44 -8 2 -3 23 -4 44 -2 24 1 40
-2 40 -8 0 -16 -76 -13 -93 4 -18 17 -16 47 3 53 9 3 11 -1 7 -12 -5 -13 1
-11 26 8 17 13 41 26 52 29 19 4 18 5 -2 6 -29 1 -36 15 -23 43 l11 23 -17
-22 c-9 -13 -25 -23 -35 -23 -25 0 -24 8 3 38 13 13 19 23 13 22 -25 -5 -35 2
-35 25 0 14 5 25 10 25 6 0 10 -7 8 -16 -2 -9 7 -20 20 -25 27 -10 27 -8 1 22
-11 13 -24 30 -28 37 -4 7 -21 16 -39 21 -31 9 -31 9 -25 -22 3 -18 12 -41 20
-52 13 -19 18 -44 7 -32 -9 9 -81 -30 -87 -48 -5 -12 -28 -15 -129 -15 -83 0
-118 -3 -108 -10 13 -9 13 -10 0 -10 -13 0 -13 -1 0 -11 11 -8 12 -12 3 -16
-15 -6 -17 -43 -3 -43 6 0 10 -8 11 -17 0 -14 2 -13 9 5 9 20 16 22 85 22 41
0 75 -4 75 -9 0 -10 -34 -21 -66 -21 -59 0 -69 -78 -17 -132 58 -61 120 -27
158 85 14 43 25 62 35 59 9 -3 11 1 7 12 -4 10 -7 22 -7 27 0 18 -21 9 -30
-13 -5 -13 -9 -17 -9 -10 -1 9 -28 12 -100 12 -108 0 -131 5 -131 26 0 11 20
14 89 14 49 0 91 -4 93 -9 2 -5 17 -12 33 -16 l30 -6 -30 14 -30 14 40 -1 c22
-1 46 -6 54 -10 8 -5 12 -5 9 0 -3 5 1 15 9 23 13 12 14 11 8 -10 -4 -13 -12
-29 -16 -35 -6 -8 -3 -14 8 -18 15 -6 15 -8 3 -16 -11 -7 -5 -10 22 -10 36 0
57 -13 39 -24 -5 -4 -12 0 -14 6 -4 10 -6 10 -6 1 -1 -7 -6 -13 -12 -13 -5 0
-7 5 -4 10 3 5 1 10 -4 10 -6 0 -11 -7 -11 -15 0 -8 5 -15 12 -15 7 0 -2 -15
-20 -33 -35 -36 -41 -57 -17 -57 13 0 13 -6 -4 -37 l-19 -37 -83 3 c-46 1 -85
7 -87 12 -2 5 -29 8 -60 7 l-57 -1 55 -7 c30 -4 51 -7 46 -8 -6 -1 -1 -9 10
-17 18 -13 16 -14 -26 -14 -25 0 -39 3 -32 6 22 9 12 23 -16 23 -25 0 -29 -4
-30 -30 0 -17 4 -30 9 -30 6 0 7 5 4 10 -4 6 17 10 57 10 52 0 65 -3 76 -20
12 -19 9 -20 -70 -22 l-83 -2 87 -5 87 -6 65 -87 c36 -48 66 -90 66 -93 0 -3
-67 -4 -150 -1 -82 2 -150 -1 -150 -5 0 -5 73 -10 163 -11 l162 -2 -165 -6
-165 -6 166 -2 c152 -2 167 -4 184 -22 18 -20 17 -20 -138 -20 -98 0 -157 4
-157 10 0 11 -39 14 -41 3 -1 -5 -2 -25 -3 -46 -1 -32 2 -37 22 -37 13 0 22 6
22 16 0 8 -4 13 -8 10 -4 -2 -8 5 -8 17 0 22 0 22 170 17 l171 -5 -160 -5
-160 -6 125 -3 c69 -2 143 -4 165 -4 39 1 42 -2 108 -87 37 -49 67 -91 67 -94
0 -4 -123 -5 -272 -4 l-273 3 -13 50 c-26 106 -35 314 -27 710 7 437 7 425 4
553 -2 92 -4 105 -16 77z m987 -275 c-20 -20 -33 -20 -457 -20 -276 0 -433 4
-427 10 6 6 122 11 269 13 l260 3 -272 -1 c-149 0 -269 3 -266 8 2 4 209 7
459 7 l454 0 -20 -20z m1278 -22 c7 -7 12 -19 11 -27 0 -9 -5 -5 -11 9 -9 21
-12 22 -15 8 -4 -16 -17 -18 -104 -18 -92 0 -99 1 -99 20 0 19 7 20 103 20 67
0 107 -4 115 -12z m-1593 -17 c-16 -4 -115 -4 -220 -1 l-190 6 220 1 c121 1
207 -2 190 -6z m1335 -30 c0 -5 -19 -53 -41 -105 l-41 -96 -173 0 c-171 0
-173 0 -179 23 l-6 22 -18 -23 c-14 -18 -27 -23 -53 -22 -65 4 -132 0 -125 -7
3 -4 -3 -12 -15 -19 -28 -15 -32 -51 -7 -57 10 -3 18 -13 18 -22 0 -15 -3 -15
-15 -5 -9 7 -18 10 -21 7 -8 -8 -33 16 -27 26 2 4 -1 7 -6 7 -6 0 -11 4 -11
10 0 5 7 7 15 4 9 -4 15 0 15 10 0 9 5 16 10 16 6 0 10 8 10 18 0 14 2 15 10
2 5 -8 10 -10 10 -4 0 5 -5 15 -12 22 -9 9 10 11 81 11 51 -1 95 2 99 6 4 4
-14 5 -41 3 -26 -3 -50 -1 -53 4 -3 5 -13 6 -23 3 -9 -4 -104 -6 -212 -6 -165
1 -198 -1 -209 -14 -7 -8 -19 -15 -26 -15 -8 0 -14 -4 -14 -10 0 -5 -7 -7 -15
-4 -8 4 -12 11 -8 18 4 6 -1 5 -10 -2 -9 -8 -25 -11 -37 -7 -36 11 -22 27 23
25 64 -4 94 -1 80 8 -7 5 23 38 85 94 l97 87 423 1 c253 0 422 -4 422 -9z m30
-96 l0 -105 -49 0 -49 0 42 105 c22 57 44 104 49 105 4 0 7 -47 7 -105z
m-1620 -37 c0 -16 -20 -47 -20 -33 0 6 -5 2 -11 -7 -7 -13 -21 -18 -52 -16
l-42 1 38 4 c38 4 94 43 62 43 -8 0 -15 5 -15 10 0 6 9 10 20 10 11 0 20 -6
20 -12z m-45 -19 c0 -8 -12 -15 -30 -17 -30 -4 -30 -4 -11 17 21 23 41 23 41
0z m209 -45 c-17 -12 -17 -13 -1 -8 9 3 17 1 17 -5 0 -6 -9 -11 -20 -11 -11 0
-20 3 -20 6 0 12 35 51 39 42 1 -5 -5 -16 -15 -24z m-336 9 c-27 -2 -69 -2
-95 0 -27 2 -5 3 47 3 52 0 74 -1 48 -3z m1010 -5 c17 -5 37 -18 42 -28 12
-23 13 -33 1 -26 -5 3 -14 -1 -21 -9 -8 -10 -34 -16 -79 -17 l-66 -1 55 -7
c37 -4 50 -8 39 -14 -10 -4 -23 -6 -30 -4 -8 1 -16 -2 -17 -7 -2 -6 -8 -16
-14 -22 -10 -13 3 -18 42 -15 9 0 15 -8 15 -23 0 -13 -3 -21 -7 -19 -8 5 -2
-51 7 -66 4 -6 -14 -10 -49 -10 -59 0 -72 14 -41 40 13 11 19 9 36 -8 21 -24
39 -31 20 -9 -6 8 -7 18 -3 22 4 5 2 6 -3 2 -6 -3 -19 2 -30 10 -19 15 -19 15
8 11 18 -4 27 -1 27 8 0 26 -38 14 -70 -22 -25 -29 -29 -39 -18 -46 8 -5 -4
-8 -33 -6 -37 1 -46 5 -41 16 3 8 -1 20 -9 26 -18 14 -22 32 -14 68 5 23 10
27 20 18 8 -6 11 -18 8 -27 -5 -12 -7 -12 -14 -1 -6 9 -9 7 -9 -8 0 -37 13
-35 30 4 10 21 25 39 33 39 9 0 16 -3 15 -6 -2 -26 4 -51 12 -46 5 3 7 11 5
18 -7 18 9 38 33 40 12 1 22 8 22 15 0 8 -6 12 -15 8 -9 -3 -15 0 -15 9 0 19
-16 19 -24 0 -3 -8 -11 -15 -18 -15 -10 0 -10 2 1 9 9 6 11 18 7 35 l-6 26
102 1 c57 1 92 4 78 6 -14 3 -31 10 -37 15 -9 7 -13 7 -13 -1 0 -7 -20 -11
-52 -11 -51 1 -52 1 -28 15 16 9 19 14 9 15 -8 0 -24 -7 -35 -15 -32 -24 -84
-14 -84 18 0 11 185 7 228 -5z m646 -25 c-12 -2 -29 -12 -37 -21 -13 -15 -33
-17 -141 -14 -70 2 -126 7 -126 13 0 5 60 10 138 11 l137 2 -145 6 -145 6 170
1 c94 0 160 -2 149 -4z m136 -13 c0 -17 -7 -20 -50 -20 -39 0 -50 -3 -50 -16
0 -11 -6 -15 -19 -11 -21 5 -56 -24 -44 -36 12 -13 -13 -7 -26 6 -11 10 -13 8
-8 -10 6 -25 -5 -30 -21 -10 -7 9 -4 20 13 40 23 26 43 38 30 17 -3 -5 -2 -10
4 -10 6 0 13 11 17 25 3 14 13 25 21 25 13 0 13 -3 3 -15 -7 -9 -8 -15 -2 -15
5 0 12 7 16 15 4 10 22 16 58 17 l53 1 -55 7 -55 7 58 1 c51 2 57 0 57 -18z
m-1437 -28 c-24 -18 -47 -92 -24 -78 6 4 9 12 5 17 -8 14 23 59 41 59 7 0 17
-5 21 -11 8 -14 -14 -29 -33 -22 -8 3 -11 0 -8 -9 3 -8 -3 -22 -13 -32 -17
-14 -22 -15 -33 -3 -8 7 -23 19 -34 25 -19 12 -19 12 2 10 12 -2 23 2 23 7 1
6 11 20 22 33 12 12 17 22 12 22 -5 0 -2 5 6 10 26 16 38 -9 13 -28z m477 21
c-1 -19 -19 -35 -34 -30 -26 10 -19 37 9 37 14 0 25 -3 25 -7z m330 -7 c0 -11
15 -16 53 -19 l52 -3 -62 -2 c-36 -1 -63 -7 -63 -12 0 -6 -10 -1 -22 10 -19
18 -20 22 -8 30 23 14 50 12 50 -4z m110 4 c0 -5 -22 -10 -50 -10 -27 0 -50 5
-50 10 0 6 23 10 50 10 28 0 50 -4 50 -10z m70 -5 c0 -12 23 -15 128 -18 l127
-3 -132 -2 c-73 -1 -133 2 -133 7 0 5 -9 11 -20 14 -11 3 -20 1 -20 -3 0 -5 8
-11 18 -13 10 -3 6 -5 -11 -6 -25 -1 -27 1 -17 19 13 24 60 28 60 5z m-1280
-30 c0 -16 -38 -40 -48 -30 -4 3 4 15 18 25 30 24 30 24 30 5z m1726 8 c-29
-3 -36 -7 -25 -14 11 -7 9 -9 -7 -9 -12 0 -27 -6 -33 -14 -16 -19 -81 -26 -81
-9 0 8 12 13 30 13 21 0 30 5 30 16 0 11 6 15 20 11 11 -3 20 -1 20 4 0 5 19
8 43 7 l42 -1 -39 -4z m-1705 -22 c-6 -10 -8 -21 -5 -24 7 -7 -23 -67 -49 -94
-11 -13 -31 -23 -43 -23 -26 0 -61 32 -75 68 -13 34 -11 50 9 60 24 13 91 24
73 13 -7 -5 -9 -11 -5 -13 5 -3 3 -3 -4 -1 -8 1 -12 0 -10 -4 36 -75 46 -79
79 -30 l22 32 -30 -28 c-24 -23 -32 -25 -36 -13 -4 10 6 22 29 35 19 11 34 25
34 31 0 5 5 10 10 10 7 0 7 -6 1 -19z m174 -11 c-5 -14 -2 -20 9 -20 9 0 16
-4 16 -10 0 -5 -4 -10 -9 -10 -14 0 -10 -48 4 -54 7 -2 13 -21 13 -41 0 -53
14 -62 54 -34 l33 23 -24 -27 c-31 -34 -13 -36 19 -2 l23 24 19 -22 20 -22
-16 24 c-14 23 -14 26 1 43 25 28 32 22 26 -24 -8 -55 -42 -107 -70 -108 -18
0 -23 6 -23 25 0 26 -2 27 -60 27 -23 0 -27 1 -12 5 12 2 20 8 17 13 -3 4 -13
6 -24 3 -29 -7 -34 25 -9 60 l22 32 -26 -23 -25 -22 -13 40 c-7 23 -18 44 -23
47 -10 6 -27 -15 -27 -32 0 -5 5 -3 10 5 9 13 11 13 20 0 16 -24 12 -39 -10
-33 -25 7 -35 38 -18 61 45 61 96 93 83 52z m765 14 c0 -4 -7 -12 -16 -19 -14
-10 -8 -12 36 -14 52 -1 80 -13 80 -33 0 -5 -5 -6 -10 -3 -18 11 -52 -6 -45
-22 5 -14 3 -14 -11 -2 -14 11 -18 11 -30 -6 -14 -19 -19 -45 -8 -45 12 0 64
34 64 42 0 16 19 7 25 -11 4 -13 12 -18 21 -14 12 4 15 -1 12 -22 -3 -29 -3
-29 -72 -26 -40 1 -66 -1 -62 -7 3 -5 29 -10 57 -11 29 0 55 -3 58 -6 3 -4
-15 -5 -39 -4 -25 1 -58 -2 -74 -6 -26 -7 -28 -6 -21 16 4 13 11 28 15 32 4 5
3 24 -3 42 -8 28 -7 37 8 52 18 17 17 18 -26 24 -24 3 -35 7 -24 7 11 1 26 11
33 22 11 19 32 28 32 14z m230 -6 c0 -10 2 -10 9 0 5 9 26 12 59 11 28 -1 49
-6 46 -11 -3 -4 2 -8 10 -8 9 0 16 5 16 10 0 6 37 10 90 10 82 0 107 -8 79
-25 -6 -4 -8 -13 -5 -20 3 -8 -2 -12 -12 -11 -9 2 -18 8 -18 14 -3 25 -5 27
-14 12 -8 -13 -13 -13 -31 -2 -11 7 -24 10 -27 6 -4 -4 -1 -9 6 -11 6 -3 12
-9 12 -15 0 -6 -6 -6 -15 2 -8 6 -19 9 -25 5 -6 -3 -10 3 -10 16 0 28 -5 23
-14 -13 -6 -25 -4 -28 21 -28 22 0 25 -2 13 -10 -9 -6 -10 -10 -3 -10 6 0 15
5 18 10 4 7 13 7 26 0 13 -8 19 -7 19 0 0 7 19 10 52 8 57 -3 70 -18 46 -51
-12 -16 -15 -16 -50 8 l-38 26 -2 -23 c0 -13 -2 -27 -3 -33 -2 -5 -3 -18 -4
-27 0 -10 -8 -18 -16 -18 -13 0 -15 10 -11 53 4 37 3 45 -3 27 -5 -14 -9 -37
-10 -52 -1 -39 -36 -38 -49 1 -7 20 -7 31 0 33 5 2 8 15 6 28 l-4 25 -14 -28
c-13 -27 -52 -50 -108 -64 -22 -5 -24 -3 -19 16 3 11 1 19 -4 15 -5 -3 -9 2
-9 11 0 11 5 15 14 12 9 -3 21 4 30 19 12 18 25 24 51 24 28 0 35 4 35 20 0
11 -6 20 -12 21 -7 0 -22 2 -33 5 -33 6 -49 -4 -35 -21 9 -10 9 -15 1 -15 -6
0 -10 -4 -8 -9 1 -5 -1 -8 -4 -7 -3 0 -14 -6 -24 -14 -11 -8 -16 -10 -11 -3 5
9 2 11 -9 6 -13 -4 -15 -14 -11 -37 3 -17 2 -36 -2 -42 -16 -23 -58 -44 -87
-43 -29 1 -29 1 -5 8 18 4 33 24 56 71 18 36 30 68 28 72 -2 4 0 9 5 12 5 4
13 1 17 -5 5 -8 3 -9 -6 -4 -9 5 -11 4 -6 -3 10 -17 46 -15 46 3 0 9 -10 16
-22 16 -30 2 -30 2 -52 -7 -14 -5 -17 -4 -12 4 5 8 0 12 -14 12 -13 0 -19 -4
-14 -12 5 -7 3 -8 -6 -3 -7 4 -16 2 -21 -6 -16 -25 -10 -29 31 -23 22 4 40 4
40 1 0 -8 -52 -118 -55 -115 -1 2 -7 18 -13 36 -12 36 -6 44 8 10 8 -21 9 -22
9 -3 1 11 -8 28 -19 38 -17 14 -20 14 -20 2 0 -8 -4 -15 -10 -15 -14 0 -12 11
10 55 11 22 20 45 20 52 0 9 16 13 50 13 33 0 50 -4 50 -12z m384 -60 c-5 -10
-4 -10 5 -2 7 6 23 9 37 6 17 -3 24 -11 24 -28 0 -20 -5 -24 -27 -24 -43 0
-53 12 -45 53 1 4 5 7 8 7 3 0 2 -6 -2 -12z m166 -8 c-11 -7 -7 -10 18 -10 17
0 32 -4 32 -10 0 -5 8 -10 17 -10 13 0 14 -3 5 -12 -6 -6 -17 -13 -24 -15 -74
-17 -69 -18 -63 13 5 28 5 28 -7 5 -10 -20 -9 -25 5 -36 27 -20 20 -35 -18
-35 -32 0 -35 -3 -52 -50 -13 -37 -23 -50 -38 -51 -17 -1 -17 -2 -2 -6 18 -5
24 -23 6 -23 -5 0 -7 -4 -4 -10 3 -5 1 -10 -5 -10 -6 0 -10 6 -9 13 1 6 -5 28
-14 48 -9 19 -19 47 -22 61 -4 15 -15 28 -26 30 -12 2 -16 7 -11 15 6 9 22 3
61 -23 29 -20 55 -34 57 -31 2 2 -21 20 -51 41 -30 20 -55 40 -55 46 0 17 19
21 54 12 39 -11 56 -1 56 35 0 21 4 23 53 23 37 0 48 -3 37 -10z m-222 -88
c-5 -26 -38 -28 -38 -3 0 12 -6 21 -14 21 -9 0 -12 7 -9 20 5 20 6 20 35 -1
16 -12 28 -28 26 -37z m-1378 8 c0 -9 -9 -25 -20 -35 -20 -18 -20 -17 -20 23
0 35 2 39 20 35 11 -3 20 -13 20 -23z m1723 10 c4 7 5 7 4 -1 -2 -6 -5 -9 -9
-7 -3 2 -15 -5 -25 -14 -15 -14 -22 -15 -31 -6 -9 9 -8 16 6 29 15 14 19 15
33 2 12 -9 19 -11 22 -3z m-1713 -45 l-22 -24 33 -4 c30 -3 29 -4 -9 -5 l-43
-2 20 29 c12 16 21 37 21 48 1 17 1 17 11 0 9 -15 6 -24 -11 -42z m1195 26 c5
-22 13 -31 33 -34 15 -2 -15 -5 -65 -6 -109 -1 -122 12 -40 45 68 28 64 28 72
-5z m442 15 c-3 -7 0 -19 6 -25 8 -8 4 -11 -16 -11 -31 0 -37 23 -9 39 23 14
25 13 19 -3z m-1699 -88 c-8 -17 23 -104 54 -150 10 -14 18 -33 18 -41 0 -8 8
-17 18 -20 11 -2 21 -14 25 -26 5 -20 2 -21 -51 -19 l-57 1 50 7 50 7 -52 1
-52 2 -69 93 -68 92 30 3 c17 2 34 10 38 17 5 7 16 12 25 11 10 -2 12 -1 6 1
-21 7 -15 23 10 24 21 0 21 1 2 9 -20 9 -20 9 0 10 11 1 15 4 8 6 -9 4 -9 11
0 32 l12 26 6 -34 c3 -19 2 -42 -3 -52z m572 43 c6 8 11 0 15 -24 7 -35 27
-49 40 -27 3 6 13 10 21 10 12 0 12 -3 2 -20 -10 -16 -24 -20 -66 -20 -45 0
-53 3 -48 16 3 9 6 19 6 24 0 4 9 6 20 3 12 -3 20 0 20 6 0 7 -4 9 -10 6 -5
-3 -10 -4 -10 -1 0 2 -2 10 -3 18 -2 7 -2 9 1 4 2 -4 8 -2 12 5z m230 -8 c0
-9 3 -13 7 -10 3 4 12 -1 18 -10 11 -15 15 -16 31 -3 11 9 15 10 10 3 -4 -7
-2 -13 3 -13 6 0 11 5 11 10 0 6 41 10 108 9 75 -2 98 -5 77 -10 -16 -5 -39
-6 -51 -3 -12 3 -25 1 -29 -6 -5 -8 -11 -7 -23 2 -15 12 -16 11 -4 -4 19 -23
7 -38 -30 -38 -30 0 -31 0 -13 20 10 11 14 20 8 20 -5 0 -19 -9 -31 -20 -23
-21 -52 -27 -52 -9 0 5 5 7 10 4 6 -3 10 1 10 10 0 9 -5 13 -10 10 -6 -4 -17
-2 -24 4 -9 8 -13 6 -13 -7 0 -9 5 -20 11 -24 6 -4 -31 -8 -81 -8 -52 0 -93 4
-93 9 0 6 10 17 23 26 12 8 21 18 20 20 -2 3 -3 12 -3 20 0 12 13 15 55 15 45
0 55 -3 55 -17z m1001 4 c19 4 29 1 29 -7 0 -7 -7 -10 -15 -6 -9 3 -15 0 -15
-9 0 -8 -7 -15 -15 -15 -8 0 -15 7 -15 16 0 8 -5 12 -10 9 -6 -4 -8 -11 -5
-16 4 -5 -4 -9 -17 -8 -13 0 -17 3 -10 6 6 2 12 9 12 15 0 6 -9 3 -21 -8 -21
-19 -48 -12 -57 15 -3 10 7 12 42 10 25 -2 46 0 46 5 0 6 5 5 11 -1 7 -7 25
-9 40 -6z m-330 -42 c9 -25 15 -45 12 -45 -2 0 -21 11 -41 25 -27 18 -50 25
-85 25 -30 0 -46 4 -42 10 3 6 28 10 56 10 27 0 49 5 49 10 0 6 8 10 18 10 11
0 23 -15 33 -45z m186 18 c9 -19 10 -30 2 -40 -16 -19 1 -16 23 4 18 16 18 16
12 0 -3 -10 -1 -17 5 -17 6 0 11 7 11 15 0 10 10 15 30 15 17 0 30 -2 30 -4 0
-2 3 -11 6 -20 5 -12 0 -16 -20 -16 -18 0 -26 6 -27 18 -1 15 -2 15 -6 0 -3
-14 -18 -17 -84 -17 -80 0 -86 2 -69 29 7 12 12 12 22 2 6 -6 19 -12 28 -12 9
1 3 7 -12 16 -16 8 -28 16 -28 19 0 42 59 49 77 8z m-1708 1 c2 -2 -28 -4 -67
-4 -43 0 -72 4 -72 10 0 10 128 4 139 -6z m361 -19 c-7 -8 -16 -12 -21 -9 -5
3 -9 0 -9 -6 0 -7 8 -9 20 -5 11 4 20 2 20 -4 0 -6 -13 -11 -29 -11 -24 0 -28
3 -24 21 4 12 11 18 20 15 7 -3 16 1 20 10 3 8 8 13 11 10 3 -3 -1 -12 -8 -21z
m202 -5 c4 -29 3 -30 -34 -30 -42 0 -52 22 -20 46 29 23 49 17 54 -16z m783
20 c4 -6 -30 -10 -95 -10 -65 0 -99 4 -95 10 3 6 46 10 95 10 49 0 92 -4 95
-10z m-1367 -30 c-9 -13 -24 -20 -45 -20 -22 0 -36 6 -43 20 -10 19 -8 20 45
20 53 0 55 -1 43 -20z m182 10 c0 -5 -13 -10 -29 -10 -62 0 -64 -11 -9 -44 50
-29 53 -34 56 -74 3 -42 2 -43 -25 -40 -23 2 -33 14 -61 71 -40 83 -34 107 28
107 22 0 40 -4 40 -10z m80 -11 c0 -15 -7 -19 -31 -19 -28 0 -30 2 -18 17 12
15 12 16 -3 10 -10 -3 -18 -2 -18 2 0 5 16 9 35 9 28 0 35 -4 35 -19z m194 15
c30 -12 18 -34 -19 -34 -28 0 -35 4 -35 20 0 20 22 26 54 14z m-260 -40 c3 -9
6 -23 6 -31 0 -15 -2 -15 -18 0 -9 8 -31 23 -47 31 l-30 16 41 0 c29 0 44 -5
48 -16z m71 -70 c8 -73 14 -73 39 0 20 61 14 73 -7 14 -12 -34 -16 -38 -16
-18 -1 14 -4 35 -7 48 -6 20 -3 22 34 22 l40 0 -4 -49 c-3 -28 0 -52 6 -56 5
-3 10 -14 10 -23 0 -15 -2 -15 -10 -2 -8 12 -10 10 -10 -8 0 -13 4 -21 9 -18
5 4 7 -3 4 -14 -5 -17 -14 -20 -62 -20 -68 0 -91 11 -72 34 11 13 11 16 0 16
-8 0 -4 8 9 20 27 25 27 32 2 55 -29 26 -27 65 4 65 22 0 24 -5 31 -66z m199
19 c-3 -25 -7 -50 -10 -54 -2 -4 -1 -10 4 -13 4 -2 6 -21 4 -40 -4 -35 -6 -36
-46 -37 l-41 -2 40 -7 40 -7 -43 -2 -43 -1 4 77 c3 44 10 79 16 81 6 2 11 15
11 28 0 21 5 24 34 24 l34 0 -4 -47z m116 42 c0 -4 -14 -46 -31 -95 -28 -81
-34 -90 -56 -90 -24 0 -25 1 -17 53 4 28 8 62 9 73 6 44 24 64 60 64 19 0 35
-2 35 -5z m110 0 c0 -7 -72 -106 -75 -103 -1 2 -5 27 -9 56 l-7 52 46 0 c25 0
45 -2 45 -5z m150 -15 c-10 -18 -6 -23 32 -40 37 -17 43 -26 16 -21 -5 0 -8
-3 -8 -9 0 -5 7 -10 15 -10 8 0 15 5 15 10 0 14 37 12 43 -2 4 -10 8 -10 15 0
7 10 11 3 15 -25 3 -21 8 -46 12 -55 7 -17 -8 -18 -229 -18 -130 0 -236 1
-236 3 0 2 13 39 29 83 30 81 34 82 43 4 4 -37 19 -28 63 39 l40 60 73 0 c70
1 72 0 62 -19z m88 -3 c2 -9 -2 -17 -8 -17 -7 0 -10 7 -6 15 3 8 1 15 -4 15
-10 0 -14 -13 -11 -40 1 -12 0 -12 -7 -2 -5 7 -13 12 -18 11 -27 -5 -35 1 -24
21 14 25 73 23 78 -3z m67 1 c-10 -33 -30 -50 -52 -46 -18 3 -19 6 -6 36 10
24 19 32 39 32 22 0 24 -3 19 -22z m68 3 c2 -10 -7 -53 -20 -96 -22 -68 -27
-76 -36 -59 -16 28 -15 137 2 157 18 23 47 21 54 -2z m627 5 c0 -11 -51 -35
-64 -30 -26 10 -6 34 30 34 19 0 34 -2 34 -4z m-1461 -65 c8 -14 7 -22 -4 -31
-13 -11 -15 -8 -15 19 0 36 5 39 19 12z m106 -131 c-8 -13 128 -16 420 -10
l240 5 -240 5 -240 6 243 2 c213 2 242 0 242 -14 0 -8 5 -12 10 -9 6 3 10 1
10 -5 0 -7 -128 -10 -431 -9 -236 1 -433 -2 -437 -6 -4 -4 39 -5 96 -3 56 3
102 1 102 -4 0 -4 -51 -8 -113 -8 -101 0 -116 2 -132 20 -18 20 -17 20 101 22
86 1 106 3 74 8 l-45 7 53 1 c32 1 51 -2 47 -8z m795 -4 c0 -8 -7 -17 -16 -20
-18 -7 -84 -8 -84 -2 0 2 -3 11 -6 20 -5 13 3 16 50 16 41 0 56 -4 56 -14z
m-662 -43 c-21 -2 -55 -2 -75 0 -21 2 -4 4 37 4 41 0 58 -2 38 -4z m532 -13
c0 -19 -7 -20 -250 -20 -160 0 -250 4 -250 10 0 6 89 11 243 12 l242 2 -240 6
-240 6 248 2 c241 2 247 2 247 -18z m130 0 c20 -20 20 -20 -50 -20 -68 0 -70
1 -60 20 8 15 21 20 50 20 27 0 47 -7 60 -20z m-737 -43 l-2 -42 11 43 c10 40
12 42 50 42 47 0 42 -19 -5 -21 l-32 -2 31 -6 31 -6 -32 -85 -32 -85 -60 -3
-59 -3 -67 88 -68 88 113 5 113 5 -97 9 c-54 4 -108 6 -122 2 -14 -3 -28 -1
-31 4 -4 7 37 10 127 9 l133 -1 -2 -41z m628 -52 c9 -33 19 -72 23 -87 l6 -28
-314 0 -314 0 28 73 c15 39 30 80 33 90 6 16 25 17 264 15 l258 -3 16 -60z
m-853 -132 c-71 -2 -185 -2 -255 0 -71 1 -13 3 127 3 140 0 198 -2 128 -3z
m220 0 c-15 -2 -42 -2 -60 0 -18 2 -6 4 27 4 33 0 48 -2 33 -4z m-958 -23 c0
-6 -32 -11 -72 -11 -60 -1 -67 -3 -38 -9 l35 -8 -35 1 c-24 2 -36 7 -38 20 -3
15 6 17 72 17 44 0 76 -4 76 -10z m875 0 c4 -7 -85 -10 -260 -10 -175 0 -264
3 -260 10 4 6 102 10 260 10 158 0 256 -4 260 -10z m95 0 c0 -5 -18 -10 -40
-10 -22 0 -40 5 -40 10 0 6 18 10 40 10 22 0 40 -4 40 -10z m-202 -27 c-76 -2
-200 -2 -275 0 -76 1 -14 3 137 3 151 0 213 -2 138 -3z m185 -12 c-5 -19 -17
-20 -299 -21 -200 0 -294 3 -294 10 0 7 88 10 280 8 221 -2 279 0 275 10 -3 7
4 12 19 12 19 0 23 -4 19 -19z m-963 -11 c0 -6 -30 -10 -71 -10 -44 0 -68 4
-64 10 3 6 35 10 71 10 36 0 64 -4 64 -10z"/>
<path d="M1448 1313 c34 -2 88 -2 120 0 31 2 3 3 -63 3 -66 0 -92 -1 -57 -3z"/>
<path d="M2780 1290 c30 -3 69 -3 85 1 19 4 -1 7 -55 7 -78 -1 -80 -1 -30 -8z"/>
<path d="M1810 1246 c0 -7 241 -158 245 -154 4 4 -230 158 -240 158 -3 0 -5
-2 -5 -4z"/>
<path d="M2243 1074 c11 -12 319 -15 312 -4 -4 6 -69 10 -162 10 -86 0 -153
-3 -150 -6z"/>
<path d="M1377 590 c-3 -14 -2 -29 3 -34 16 -16 23 1 13 31 l-9 27 -7 -24z"/>
<path d="M2513 1590 c-18 -28 -17 -30 22 -28 19 1 38 -2 42 -5 3 -4 12 -2 19
3 6 6 16 9 20 8 5 -2 9 2 9 7 0 6 -21 9 -47 9 -33 -1 -48 3 -50 13 -2 10 -6 8
-15 -7z"/>
<path d="M2667 1596 c-4 -10 -2 -26 3 -36 7 -13 7 -21 0 -25 -5 -3 -10 2 -10
11 0 20 -13 11 -16 -12 -2 -12 4 -15 22 -11 13 2 24 1 24 -4 0 -4 10 -6 23 -3
12 3 37 5 55 5 22 0 32 4 32 14 0 11 -11 15 -39 15 -22 0 -42 5 -44 13 -3 6
-6 2 -6 -10 -1 -13 -5 -23 -11 -23 -15 0 -12 26 5 40 16 14 20 40 6 40 -5 0
-12 -8 -16 -17 -7 -17 -8 -17 -14 1 -7 18 -8 18 -14 2z"/>
<path d="M2763 1582 c1 -13 7 -17 23 -14 15 3 21 9 17 19 -5 12 -7 12 -14 1
-7 -10 -9 -10 -9 0 0 6 -4 12 -9 12 -6 0 -9 -8 -8 -18z"/>
<path d="M2241 1554 c-1 -7 -10 -14 -22 -17 -12 -3 -18 -10 -15 -15 6 -11 122
-10 132 1 3 3 17 2 30 -3 19 -8 24 -6 24 6 0 13 -9 15 -40 12 -22 -2 -40 0
-40 5 0 4 -10 2 -22 -4 -28 -15 -31 -15 -39 8 -4 10 -8 13 -8 7z"/>
<path d="M2506 1538 c3 -4 -9 -5 -26 -2 -22 5 -30 3 -30 -7 0 -10 15 -14 55
-14 48 0 55 2 55 20 0 17 -2 17 -10 5 -5 -8 -10 -10 -10 -5 0 6 -9 11 -19 11
-11 0 -17 -4 -15 -8z"/>
<path d="M580 1521 c-5 -11 -10 -28 -10 -39 0 -23 25 -46 40 -37 16 10 12 45
-5 45 -18 0 -20 21 -3 38 9 9 9 12 0 12 -6 0 -16 -9 -22 -19z"/>
<path d="M311 1418 c-5 -14 -5 -28 1 -35 6 -7 4 -13 -4 -17 -7 -3 -4 -4 7 -3
11 2 41 -7 67 -20 40 -19 61 -23 135 -21 l88 2 -90 5 c-67 5 -101 12 -135 30
-52 27 -63 40 -49 57 7 8 6 14 -1 19 -5 3 -14 -4 -19 -17z"/>
<path d="M241 1310 c1 -38 4 -70 8 -70 4 0 7 32 7 70 0 39 -4 70 -8 70 -4 0
-7 -31 -7 -70z"/>
<path d="M785 1370 c2 -3 484 -7 1072 -7 587 -1 1061 0 1053 2 -26 7 -2129 12
-2125 5z"/>
<path d="M172 1348 c-15 -15 -16 -32 -2 -23 6 4 10 -5 10 -19 0 -14 6 -26 13
-26 7 0 12 15 12 40 1 41 -11 50 -33 28z"/>
<path d="M1878 1343 c17 -2 47 -2 65 0 17 2 3 4 -33 4 -36 0 -50 -2 -32 -4z"/>
<path d="M2128 1333 c39 -2 105 -2 145 0 39 1 7 3 -73 3 -80 0 -112 -2 -72 -3z"/>
<path d="M2497 1333 c79 -2 207 -2 286 0 78 1 14 3 -143 3 -157 0 -221 -2
-143 -3z"/>
<path d="M280 1307 c0 -18 2 -19 10 -7 9 13 11 13 20 0 8 -12 10 -12 10 5 0
14 -7 21 -20 22 -14 1 -20 -4 -20 -20z"/>
<path d="M331 1306 c2 -2 64 -7 137 -11 94 -5 132 -4 132 4 0 7 -43 11 -137
11 -75 0 -134 -2 -132 -4z"/>
<path d="M380 1262 c-44 -21 -44 -21 -38 -28 4 -3 21 3 40 13 22 12 64 20 128
24 l95 5 -95 2 c-70 0 -104 -4 -130 -16z"/>
<path d="M290 1245 c0 -14 5 -25 11 -25 5 0 8 4 5 9 -3 5 1 12 10 15 18 7 10
26 -12 26 -8 0 -14 -10 -14 -25z"/>
<path d="M2894 1235 c-13 -25 -3 -79 15 -83 8 -2 11 3 8 12 -3 8 -1 17 6 19 9
3 9 7 1 18 -7 8 -14 23 -16 34 -4 20 -4 20 -14 0z"/>
<path d="M299 1183 c-10 -12 -10 -14 -1 -9 6 4 12 2 12 -3 0 -6 -6 -11 -12
-11 -10 0 -10 -2 -1 -8 14 -9 12 -84 -2 -94 -5 -4 0 -8 11 -8 13 0 24 8 27 20
3 11 1 20 -3 20 -4 0 -7 23 -6 51 2 56 -5 67 -25 42z"/>
<path d="M369 1153 c-1 -16 -2 -45 -3 -66 -2 -24 1 -36 8 -34 13 4 18 127 5
127 -5 0 -9 -12 -10 -27z"/>
<path d="M2871 1107 c-7 -20 -20 -38 -29 -41 -9 -2 -2 -3 16 -1 17 2 32 -1 32
-6 0 -5 -6 -9 -14 -9 -17 0 -29 -27 -15 -35 5 -4 12 1 15 9 8 22 25 20 18 -1
-5 -15 -4 -16 5 -3 14 19 14 50 0 50 -6 0 -8 9 -3 23 9 29 12 44 6 33 -2 -4
-8 -3 -12 4 -5 8 -12 0 -19 -23z"/>
<path d="M1322 1103 c-8 -3 -5 -10 10 -23 20 -16 21 -20 8 -36 -9 -13 -10 -15
-1 -7 7 6 21 9 30 5 14 -5 14 -3 -1 12 -21 21 -22 28 -6 44 9 9 8 12 -7 11
-11 0 -26 -3 -33 -6z"/>
<path d="M130 1080 c0 -16 7 -20 38 -21 20 0 49 -3 65 -5 20 -4 27 -1 27 11 0
9 -4 13 -10 10 -5 -3 -10 -1 -10 6 0 8 -4 8 -16 -2 -13 -10 -17 -10 -25 2 -7
11 -11 11 -17 1 -7 -10 -11 -10 -22 3 -17 21 -30 19 -30 -5z"/>
<path d="M55 1081 c-3 -5 -1 -12 4 -15 5 -4 12 0 14 6 3 8 6 6 6 -5 1 -21 21
-13 21 9 0 15 -35 20 -45 5z"/>
<path d="M405 1060 c-15 -16 -32 -20 -89 -21 -51 -1 -63 -3 -41 -8 17 -4 44
-6 61 -3 22 3 38 -3 61 -22 29 -24 37 -26 119 -24 l89 2 -85 3 c-116 5 -121
18 -7 17 l92 -1 -97 6 c-53 3 -100 10 -105 15 -4 5 35 6 95 3 56 -3 102 -2
102 2 0 4 -39 8 -87 10 -121 3 -125 16 -5 15 l97 -1 -95 6 -95 7 95 5 95 5
-91 2 c-80 2 -93 0 -109 -18z"/>
<path d="M60 1035 c0 -10 10 -15 28 -15 26 1 26 1 8 15 -25 19 -36 19 -36 0z"/>
<path d="M130 1026 c0 -17 2 -18 10 -6 5 8 10 10 10 4 0 -7 18 -14 40 -16 29
-3 40 0 40 10 0 9 -6 12 -16 8 -8 -3 -12 -2 -9 4 8 13 -1 13 -26 0 -14 -8 -19
-7 -19 3 0 8 -7 14 -15 14 -9 0 -15 -9 -15 -21z"/>
<path d="M808 1023 c17 -2 47 -2 65 0 17 2 3 4 -33 4 -36 0 -50 -2 -32 -4z"/>
<path d="M320 1015 c0 -2 23 -23 51 -45 l51 -40 91 2 92 2 -90 6 -90 6 88 2
c48 1 87 5 87 10 0 4 -44 6 -99 4 -98 -3 -99 -3 -134 27 -33 29 -47 37 -47 26z"/>
<path d="M2843 997 c-3 -4 18 -7 46 -6 28 2 51 5 51 9 0 9 -91 6 -97 -3z"/>
<path d="M2803 980 c-7 -10 -9 -22 -4 -25 5 -3 12 1 14 7 4 10 7 10 14 1 7
-10 13 -10 29 3 10 8 14 13 8 10 -7 -3 -17 1 -24 9 -16 20 -23 19 -37 -5z"/>
<path d="M2877 959 c-9 -13 -17 -33 -16 -44 0 -16 3 -14 11 8 7 19 15 26 25
23 8 -3 21 -6 29 -6 9 0 12 -5 9 -11 -4 -6 -12 -8 -19 -6 -6 3 -16 -5 -22 -17
-8 -18 -7 -23 3 -23 7 0 13 6 13 13 0 6 7 14 15 18 9 3 15 0 15 -10 0 -12 4
-13 20 -4 11 6 24 9 28 6 4 -2 9 4 9 15 1 12 -5 19 -15 19 -13 0 -14 -2 -4 -9
11 -6 10 -10 -4 -15 -27 -10 -37 8 -14 29 11 10 20 22 20 27 0 15 -39 8 -49
-9 -12 -22 -23 -20 -31 3 -6 15 -8 15 -23 -7z"/>
<path d="M125 846 c-12 -18 -13 -29 -5 -52 7 -17 9 -52 5 -85 -4 -31 -3 -59 2
-62 9 -6 12 20 14 98 0 37 3 45 9 30 8 -18 9 -18 9 5 1 20 3 22 11 10 7 -11
10 -12 10 -2 0 7 -7 20 -15 28 -13 14 -15 14 -15 0 0 -9 -4 -16 -10 -16 -13 0
-13 26 0 51 15 27 4 24 -15 -5z"/>
<path d="M170 853 c0 -9 9 -12 25 -9 15 3 25 0 25 -7 0 -9 2 -9 8 0 9 14 59
19 85 8 12 -5 17 -3 17 9 0 15 -11 17 -80 14 -58 -1 -80 -6 -80 -15z"/>
<path d="M340 854 c0 -7 6 -11 13 -8 7 2 28 -11 47 -31 l34 -35 85 2 86 2 -80
3 c-77 4 -82 5 -117 40 -40 39 -68 50 -68 27z"/>
<path d="M220 796 c0 -18 17 -30 22 -16 4 13 43 13 103 -1 28 -6 97 -12 155
-14 l105 -3 -100 8 c-111 9 -155 18 -155 31 0 5 -29 9 -65 9 -50 0 -65 -3 -65
-14z"/>
<path d="M55 791 c-3 -6 0 -11 7 -11 7 0 14 -11 14 -25 1 -17 -3 -25 -14 -25
-12 0 -13 -3 -5 -11 23 -23 44 -2 40 38 -4 38 -28 56 -42 34z"/>
<path d="M280 758 c0 -17 -41 -19 -52 -3 -5 6 -8 3 -8 -6 0 -14 23 -16 193
-16 l192 0 -147 7 c-96 4 -152 11 -162 19 -13 11 -16 11 -16 -1z"/>
<path d="M400 713 c-14 -3 -29 -9 -35 -15 -7 -7 -2 -8 15 -2 14 4 70 11 125
14 l100 7 -90 0 c-49 0 -101 -2 -115 -4z"/>
<path d="M403 674 c-24 -14 -43 -30 -43 -35 0 -6 17 2 37 16 33 22 48 25 122
25 46 0 82 2 80 4 -2 2 -38 6 -79 10 -69 5 -78 4 -117 -20z"/>
<path d="M151 653 c-1 -21 2 -22 100 -22 87 0 100 2 97 16 -4 21 -38 26 -38 6
0 -11 -3 -13 -13 -5 -7 6 -22 9 -32 8 -11 -2 -30 1 -42 5 -18 7 -23 5 -23 -9
0 -15 -2 -15 -10 -2 -8 13 -11 13 -19 1 -7 -11 -10 -10 -14 5 -4 16 -5 16 -6
-3z"/>
<path d="M326 520 c4 -55 3 -60 -16 -60 -25 0 -27 27 -2 33 16 4 16 5 0 6 -12
1 -16 7 -12 19 5 16 5 16 -6 0 -6 -10 -20 -18 -30 -18 -11 0 -20 -5 -20 -11 0
-7 9 -9 21 -6 13 3 19 1 16 -6 -2 -7 -11 -11 -21 -9 -9 2 -16 -4 -16 -14 0
-10 5 -14 15 -10 10 4 15 -1 15 -14 0 -13 -5 -18 -15 -14 -9 4 -15 0 -15 -10
0 -9 8 -16 19 -16 24 0 36 -39 14 -47 -8 -3 -18 0 -23 6 -5 9 -9 8 -14 -4 -10
-26 -9 -27 43 -23 27 1 49 1 48 -2 -1 -3 2 -7 8 -10 5 -3 8 14 6 43 -1 29 2
47 9 47 7 0 9 -21 6 -66 -4 -48 -2 -64 7 -61 8 2 11 25 10 64 -2 56 0 60 18
56 11 -3 19 -14 20 -27 1 -20 1 -20 7 2 4 13 10 23 15 23 4 -1 14 -1 21 -1 11
0 16 -15 19 -52 l3 -53 2 56 2 55 48 -6 c27 -3 54 -4 60 -2 14 4 16 90 3 110
-6 10 -10 8 -14 -8 -5 -18 -9 -20 -26 -11 -29 16 -38 13 -15 -4 18 -14 17 -15
-7 -6 -18 7 -30 6 -39 -2 -10 -10 -11 0 -8 46 3 37 1 56 -6 54 -6 -2 -9 -26
-7 -55 2 -43 0 -52 -15 -52 -13 0 -15 6 -10 30 3 17 1 30 -4 30 -5 0 -10 -12
-12 -27 -2 -22 -9 -29 -30 -31 -35 -4 -39 24 -5 31 22 4 22 4 -2 6 -20 1 -22
5 -17 26 4 14 2 25 -4 25 -5 0 -10 -20 -10 -45 0 -25 -5 -45 -10 -45 -7 0 -9
23 -6 60 3 44 0 60 -9 60 -9 0 -12 -16 -9 -60z m4 -90 c0 -13 -7 -20 -20 -20
-13 0 -20 7 -20 20 0 13 7 20 20 20 13 0 20 -7 20 -20z m88 3 c-2 -9 -13 -18
-25 -19 -17 -3 -23 1 -23 16 0 15 7 20 26 20 18 0 25 -5 22 -17z m52 -3 c0
-13 -7 -20 -20 -20 -13 0 -20 7 -20 20 0 13 7 20 20 20 13 0 20 -7 20 -20z
m-142 -63 c2 -18 -1 -27 -11 -27 -15 0 -27 20 -27 45 0 26 35 9 38 -18z"/>
<path d="M158 460 c-16 -29 -16 -30 2 -30 11 0 20 -7 20 -15 0 -8 6 -15 13
-15 8 0 12 11 11 28 -2 37 -2 36 -21 21 -15 -13 -15 -12 -5 8 7 12 17 24 24
26 7 3 4 6 -7 6 -12 1 -27 -11 -37 -29z"/>
<path d="M2363 453 c103 -2 271 -2 375 0 103 1 18 2 -188 2 -206 0 -291 -1
-187 -2z"/>
<path d="M863 443 c31 -2 83 -2 115 0 31 2 5 3 -58 3 -63 0 -89 -1 -57 -3z"/>
<path d="M2337 403 c105 -2 281 -2 390 0 109 1 23 2 -192 2 -214 0 -304 -1
-198 -2z"/>
<path d="M520 343 c0 -7 -7 -10 -15 -7 -11 5 -15 -1 -14 -22 1 -19 3 -22 6
-11 4 14 13 18 36 15 17 -2 32 2 34 9 2 6 -4 10 -14 9 -10 -2 -21 2 -25 8 -6
8 -8 7 -8 -1z"/>
<path d="M130 175 c0 -19 11 -19 36 0 18 14 18 14 -8 15 -18 0 -28 -5 -28 -15z"/>
<path d="M1510 171 c0 -4 58 -7 130 -7 71 1 130 4 130 7 0 4 -58 7 -130 7 -71
0 -130 -3 -130 -7z"/>
<path d="M1810 169 c-19 -4 224 -6 540 -5 316 0 490 2 385 3 -459 7 -893 8
-925 2z"/>
<path d="M157 144 c5 -14 3 -16 -11 -11 -12 5 -16 3 -14 -5 3 -7 13 -13 24
-13 21 0 27 36 6 43 -8 2 -10 -2 -5 -14z"/>
<path d="M2768 133 c28 -2 76 -2 105 0 28 2 5 3 -53 3 -58 0 -81 -1 -52 -3z"/>
<path d="M1394 123 c7 -7 417 -5 424 2 3 3 -93 5 -213 5 -120 -1 -215 -3 -211
-7z"/>
<path d="M1900 118 c0 -5 231 -7 513 -6 281 1 476 3 432 5 -190 7 -945 7 -945
1z"/>
</g>
</svg>
