<?xml version="1.0" encoding="utf-8"?>
<!-- Generator: Adobe Illustrator 27.1.1, SVG Export Plug-In . SVG Version: 6.00 Build 0)  -->
<svg version="1.1" id="Layer_1" xmlns="http://www.w3.org/2000/svg" xmlns:xlink="http://www.w3.org/1999/xlink" x="0px" y="0px"
	 viewBox="0 0 144 144" style="enable-background:new 0 0 144 144;" xml:space="preserve">
<style type="text/css">
	.st0{fill:none;stroke:#000000;stroke-linecap:round;stroke-miterlimit:10;}
</style>
<path class="st0" d="M70.1,70.8L70.1,70.8L70.1,70.8L70.1,70.8L70.1,70.8L70.1,70.8L70.1,70.8L70.1,70.8L70.1,70.8L70.1,70.8
	L70.1,70.8L70.1,70.8L70.1,70.8L70.1,70.8L70.1,70.8L70.1,70.8L70.1,70.8L70.1,70.8L70.1,70.8L70.1,70.8L70.1,70.8L70.1,70.8
	L70.1,70.8L70.1,70.8L70.1,70.8L70.1,70.8L70.1,70.8L70.1,70.8L70.1,70.8L70.1,70.8L70.1,70.8V71v0.1v0.1v0.1v0.1v0.1v0.1l0.1,0.1
	l0.1,0.1l0.1,0.2l0.1,0.2l0.1,0.2l0.1,0.2l0.1,0.3l0.1,0.3l0.1,0.3l0.2,0.4l0.2,0.4l0.2,0.5l0.2,0.5l0.3,0.6l0.3,0.6l0.3,0.7
	l0.4,0.8l0.4,0.9l0.5,1l0.5,1.1l0.6,1.2l0.6,1.4l0.7,1.5l0.8,1.7l0.9,1.9l1,2l1.1,2.3l1.2,2.5l1.3,2.7l1.5,2.9l1.6,3.1l1.8,3.3
	l1.9,3.5l2.1,3.6l2.2,3.6l2.4,3.4l2.5,3.1l2.5,2.5l2.5,1.7l2.5,0.5l2.3-1l1.9-2.7l1.5-4.7l0.9-6.8l0.1-8.6l-0.8-10l-1.7-10.8
	l-2.6-10.7l-3.4-10l-4.1-8.6l-4.5-6.9l-4.8-5.1L86.3,40l-4.7-2.2l-4.4-1.2l-4.1-0.4l-3.7,0.1L66,36.7l-3,0.6l-2.6,0.8L58.1,39l-2,1
	l-1.7,1.1L53,42.3l-1.1,1.4L51,45.2l-0.6,1.5L50,48.3L49.8,50v1.7l0.1,1.7l0.3,1.7l0.5,1.6l0.6,1.5l0.7,1.4l0.7,1.3l0.8,1.2l0.8,1
	l0.9,0.9l0.9,0.7l0.8,0.6l0.8,0.5l0.8,0.4l0.7,0.3l0.7,0.2l0.6,0.1h0.6h0.5l0.5-0.1l0.4-0.1l0.4-0.2l0.3-0.2l0.3-0.2l0.2-0.2
	l0.2-0.3l0.1-0.3l0.1-0.3v-0.3v-0.4v-0.4L64,63.4L63.9,63l-0.1-0.5L63.6,62l-0.2-0.5l-0.2-0.6l-0.3-0.6l-0.3-0.6L62.3,59l-0.4-0.8
	l-0.4-0.8L61,56.5l-0.5-0.9l-0.5-1l-0.6-1l-0.6-1.1l-0.7-1.2l-0.7-1.2l-0.8-1.3l-0.8-1.3l-0.9-1.4L54,44.7l-1-1.4l-1-1.4l-1-1.4
	l-1.1-1.3L48.8,38l-1.1-1.1L46.6,36l-1.1-0.6l-1-0.3h-1l-0.9,0.4l-0.8,0.8l-0.6,1.3l-0.4,1.7l-0.2,2.2V44l0.3,2.9l0.6,3.1l0.8,3.2
	l1,3.2l1.3,3.1l1.4,2.9l1.6,2.6l1.7,2.3l1.8,2l1.8,1.6l1.8,1.3l1.7,1l1.6,0.7l1.5,0.5l1.4,0.3l1.3,0.2l1.2,0.1h1.1h1l0.9-0.1
	l0.8-0.1l0.7-0.1l0.6-0.1l0.5-0.1l0.5-0.1h0.4h0.4h0.3h0.3h0.3l0.3,0.1l0.2,0.1l0.2,0.1l0.2,0.2l0.2,0.2l0.2,0.2l0.2,0.3l0.2,0.3
	l0.2,0.3l0.2,0.4l0.2,0.4l0.3,0.4l0.3,0.5l0.3,0.5l0.3,0.6l0.4,0.6l0.4,0.7l0.4,0.8l0.4,0.8l0.5,0.9l0.5,1l0.6,1l0.6,1.1l0.7,1.2
	l0.7,1.3l0.8,1.4l0.8,1.5l0.9,1.6l1,1.6l1,1.7l1.1,1.8l1.2,1.8l1.2,1.9l1.3,1.8l1.4,1.8L92,107l1.4,1.5l1.4,1.2l1.4,0.9l1.4,0.5h1.3
	l1.1-0.6l1-1.3l0.7-2l0.5-2.7l0.1-3.3l-0.2-3.9l-0.6-4.3l-0.9-4.5L99.2,84l-1.6-4.4l-1.9-4.1l-2.1-3.6l-2.3-3.1l-2.4-2.6l-2.4-2
	l-2.3-1.5l-2.3-1.1l-2.1-0.8l-2-0.5L75.9,60l-1.7-0.1h-1.5h-1.4L70.2,60L69,60.1l-1,0.1l-0.9,0.1h-0.8h-0.7H65l-0.6-0.1l-0.5-0.1
	l-0.5-0.2l-0.5-0.2l-0.4-0.3l-0.4-0.3l-0.4-0.4l-0.4-0.4L61,57.8l-0.4-0.5l-0.4-0.6l-0.4-0.6l-0.5-0.7l-0.5-0.7l-0.5-0.8l-0.5-0.8
	l-0.6-0.9l-0.6-0.9L56,50.4l-0.7-1l-0.7-1l-0.7-1l-0.8-1l-0.8-1l-0.8-0.9l-0.8-0.9l-0.8-0.8l-0.8-0.7l-0.8-0.6l-0.8-0.4l-0.8-0.3H46
	L45.3,41l-0.5,0.4l-0.5,0.7l-0.3,1l-0.2,1.2l-0.1,1.5l0.1,1.7l0.2,1.8l0.4,2l0.5,2l0.7,2l0.8,2l1,1.9l1,1.8l1.1,1.6l1.2,1.4l1.2,1.2
	l1.2,1.1l1.2,0.9l1.2,0.7l1.1,0.5l1,0.4l1,0.3l0.9,0.2l0.8,0.1h0.8h0.7l0.6-0.1l0.5-0.1l0.5-0.2l0.4-0.2l0.4-0.2l0.3-0.2l0.2-0.2
	l0.2-0.2l0.1-0.3l0.1-0.3l0.1-0.3v-0.3v-0.3v-0.3l-0.1-0.4L65,65.4L64.9,65l-0.1-0.4l-0.2-0.5l-0.2-0.5l-0.2-0.5l-0.3-0.6l-0.3-0.6
	l-0.3-0.7l-0.4-0.7l-0.4-0.8l-0.4-0.8L61.6,58l-0.5-1l-0.5-1L60,54.9l-0.6-1.2l-0.7-1.3l-0.8-1.3l-0.8-1.4l-0.9-1.5l-0.9-1.6l-1-1.6
	l-1.1-1.7l-1.1-1.7l-1.2-1.7l-1.2-1.6l-1.3-1.6l-1.3-1.4l-1.3-1.2l-1.3-1l-1.3-0.7L42,32.2l-1.1,0.2l-1,0.8l-0.8,1.4l-0.6,2
	l-0.3,2.6v3.1l0.3,3.5l0.6,3.9l0.9,4l1.2,4l1.5,3.9l1.8,3.6l1.9,3.2l2.1,2.8l2.1,2.3l2.1,1.9l2.1,1.4l2,1.1l2,0.8l1.8,0.5l1.7,0.3
	l1.6,0.1h1.4h1.3l1.1-0.1l1-0.1l0.9-0.1l0.8-0.1l0.7-0.1h0.6h0.6l0.5,0.1l0.5,0.1l0.4,0.1l0.4,0.2l0.4,0.2l0.4,0.3l0.4,0.3l0.4,0.4
	l0.4,0.4l0.4,0.5l0.4,0.5l0.4,0.6l0.4,0.6l0.4,0.7l0.5,0.7l0.5,0.8l0.5,0.9l0.5,0.9l0.6,1l0.6,1l0.7,1.1l0.7,1.1l0.8,1.2l0.8,1.2
	l0.8,1.2l0.9,1.2l0.9,1.2l0.9,1.2l1,1.2l1,1.1l1,1l1,0.8l1,0.6l1,0.4l0.9,0.1l0.8-0.2l0.7-0.5l0.6-0.9l0.5-1.2l0.3-1.6l0.1-2
	l-0.1-2.2l-0.3-2.5l-0.5-2.6L96,87.6l-1-2.7l-1.1-2.6l-1.3-2.5l-1.4-2.2l-1.5-2l-1.5-1.7l-1.5-1.4l-1.5-1.2l-1.5-0.9l-1.4-0.7
	l-1.4-0.5l-1.3-0.3l-1.2-0.2l-1.1-0.1h-1h-0.9l-0.8,0.1l-0.7,0.1l-0.6,0.1L72.7,69l-0.5,0.1l-0.4,0.1l-0.4,0.1l-0.3,0.1l-0.3,0.1
	l-0.2,0.1l-0.2,0.1l-0.2,0.1l-0.1,0.1H70h-0.1h-0.1h-0.1h-0.1h-0.1h-0.1h-0.1l0,0l0,0l0,0l0,0v-0.1v-0.1v-0.1l-0.1-0.1l-0.1-0.1
	L69,69.3l-0.1-0.1l-0.1-0.1L68.7,69l-0.1-0.2l-0.1-0.2l-0.1-0.2l-0.1-0.2L68.2,68l-0.1-0.3L68,67.4l-0.2-0.3l-0.2-0.4l-0.2-0.4
	l-0.2-0.4L67,65.4l-0.2-0.5l-0.3-0.6l-0.3-0.6L65.9,63l-0.4-0.8l-0.4-0.8l-0.5-0.9l-0.5-1l-0.5-1.1L63,57.2l-0.7-1.3l-0.7-1.4
	l-0.8-1.6l-0.9-1.7l-1-1.8l-1-2l-1.1-2.1L55.6,43l-1.3-2.4l-1.5-2.5l-1.6-2.6l-1.7-2.6l-1.8-2.6l-1.5-2.5l-1.9-2.3l-2-1.9l-2-1.4
	l-1.9-0.7l-1.8,0.1L35,22.8l-1.3,2.3l-1,3.6l-0.5,4.8v5.9l0.6,6.7l1.2,7.2l1.8,7.3l2.4,6.9l2.8,6.3l3.2,5.4l3.4,4.3l3.5,3.3l3.5,2.4
	l3.4,1.6l3.2,1l3,0.5l2.7,0.2h2.5l2.2-0.2l2-0.3l1.8-0.3l1.5-0.3l1.4-0.3l1.2-0.3l1-0.3l0.9-0.3l0.8-0.2l0.7-0.2l0.6-0.2l0.5-0.2
	l0.4-0.2l0.4-0.1l0.3-0.1l0.3-0.1l0.2-0.1l0.2-0.1l0.2-0.1l0.1-0.1l0.1-0.1l0.1-0.1l0.1-0.1l0.1-0.1l0.1-0.1v-0.1l0,0l0,0l0,0l0,0
	l0,0l0,0l0,0l0,0l0,0l0,0l0,0l0,0l0,0l0,0l0,0l0,0l0,0l0,0l0,0l0,0l0,0l0,0l0,0l0,0l0,0l0,0l0,0l0,0l0,0l0,0l0,0l0,0l0,0l0,0l0,0
	l0,0l0,0l0,0l0,0l0,0l0,0l0,0l0,0l0,0l0,0l0,0l0,0l0,0l0,0l0,0l0,0l0,0l0,0l0,0l0,0l0,0l0,0l0,0l0,0l0,0l0,0l0,0l0,0l0,0l0,0l0,0
	l0,0l0,0l0,0l0,0l0,0l0,0l0,0l0,0l0,0l0,0l0,0l0,0l0,0l0,0l0,0l0,0l0,0l0,0l0,0l0,0l0,0l0,0l0,0l0,0l0,0V88v0.1v0.1v0.1l0,0l0,0l0,0
	l0,0l0,0l0,0l0,0l0,0l0,0l0,0l0,0l0,0l0,0l0,0l0,0l0,0l0,0l0,0l0,0l0,0l0,0l0,0v-0.1v-0.1V88v-0.1v-0.1v-0.1v-0.1v-0.1v-0.1v-0.1
	v-0.1v-0.1V87l0,0l0,0l0,0l0,0l0,0l0,0l0,0l0,0l0,0l0,0l0,0l0,0l0,0l0,0l0,0l0,0v0.1v0.1v0.1v0.1v0.1v0.1v0.1v0.1v0.1V88v0.1v0.1
	l0.1,0.1l0.1,0.1l0.1,0.1l0.1,0.1l0.1,0.1h0.1h0.1h0.1h0.1l0,0l0,0l0,0l0,0l0,0l0,0l0,0l0,0v-0.1v-0.1v-0.1v-0.1v-0.1v-0.1V88v-0.1
	v-0.1v-0.1v-0.1l-0.1-0.1l-0.1-0.1l-0.1-0.1l-0.1-0.1L87,87.1L86.9,87l-0.1-0.1l-0.1-0.1l-0.1-0.1h-0.1h-0.1h-0.1h-0.1h-0.1l0,0l0,0
	l0,0l0,0l0,0l0,0v0.1v0.1V87v0.1v0.1v0.1v0.1v0.1v0.1v0.1l0.1,0.1l0.1,0.1l0.1,0.1l0.1,0.1l0.1,0.1l0.1,0.1l0.1,0.1l0.1,0.1l0.1,0.1
	l0.1,0.1l0.1,0.1l0.1,0.1h0.1h0.1h0.1h0.1h0.1l0,0l0,0v-0.1v-0.1v-0.1v-0.1v-0.1v-0.1v-0.1v-0.1V88v-0.1l-0.1-0.1l-0.1-0.1l-0.1-0.1
	l-0.1-0.1l-0.1-0.1l-0.1-0.1l-0.1-0.1L87,87.1L86.9,87l-0.1-0.1l-0.1-0.1l-0.1-0.1l-0.1-0.1h-0.1h-0.1h-0.1h-0.1H86h-0.1h-0.1l0,0
	v0.1v0.1v0.1V87v0.1v0.1v0.1v0.1v0.1l0.1,0.2l0.1,0.2l0.1,0.2l0.1,0.2l0.1,0.2l0.1,0.2l0.1,0.2l0.1,0.2l0.1,0.2l0.1,0.1l0.1,0.1
	l0.1,0.1l0.1,0.1l0.1,0.1l0.1,0.1l0.1,0.1h0.1h0.1h0.1h0.1H88l0.1-0.1l0.1-0.1v-0.1v-0.1v-0.1v-0.2v-0.2v-0.2v-0.2l-0.1-0.2L88,88.3
	l-0.1-0.2l-0.1-0.2l-0.1-0.2l-0.1-0.2l-0.1-0.2l-0.1-0.2l-0.1-0.2l-0.2-0.2l-0.2-0.2l-0.2-0.1l-0.2-0.1l-0.2-0.1l-0.1-0.1L86.1,86
	H86h-0.1h-0.1h-0.1h-0.1l-0.1,0.1l-0.1,0.1v0.1v0.1v0.1v0.1v0.2V87v0.2v0.2l0.1,0.2l0.1,0.2l0.1,0.2l0.1,0.2l0.1,0.2l0.1,0.2
	l0.1,0.2l0.2,0.2l0.2,0.2l0.2,0.2l0.2,0.2l0.2,0.2l0.2,0.2l0.2,0.2l0.2,0.2l0.2,0.1l0.2,0.1l0.2,0.1h0.2h0.1h0.1l0.1-0.1l0.1-0.1
	l0.1-0.1l0.1-0.1v-0.2v-0.2v-0.2v-0.3v-0.3L89,88.8l-0.1-0.3l-0.1-0.3l-0.1-0.3l-0.2-0.3l-0.2-0.3L88,87l-0.2-0.3l-0.2-0.3l-0.2-0.3
	l-0.2-0.3l-0.2-0.2l-0.2-0.2l-0.2-0.2l-0.2-0.1L86.3,85l-0.2-0.1l-0.2-0.1h-0.2h-0.2h-0.1h-0.1l-0.1,0.1L85.1,85L85,85.1l-0.1,0.2
	v0.2v0.2v0.2v0.2v0.3l0.1,0.3l0.1,0.3l0.1,0.3l0.1,0.3l0.1,0.3l0.2,0.3l0.2,0.4L86,89l0.2,0.4l0.2,0.4l0.2,0.3l0.2,0.3l0.3,0.3
	l0.3,0.3l0.3,0.3l0.3,0.2l0.3,0.2l0.3,0.2l0.2,0.1l0.2,0.1l0.2,0.1h0.2h0.2l0.2-0.1l0.1-0.1l0.1-0.2l0.1-0.3v-0.3v-0.4v-0.4L90,90
	l-0.1-0.5L89.8,89l-0.2-0.5L89.4,88l-0.2-0.5L88.9,87l-0.3-0.5L88.3,86L88,85.5l-0.3-0.4l-0.3-0.4L87,84.4l-0.4-0.3l-0.3-0.3
	L86,83.6l-0.3-0.2l-0.3-0.1L85,83.2h-0.3h-0.2h-0.2l-0.2,0.1L84,83.4l-0.1,0.1l-0.1,0.2l-0.1,0.2l-0.1,0.2v0.3v0.3V85l0.1,0.3
	l0.1,0.4l0.1,0.4l0.1,0.4l0.2,0.4l0.2,0.5l0.2,0.5l0.2,0.5l0.3,0.5l0.3,0.5l0.3,0.5l0.3,0.5l0.4,0.5l0.4,0.5l0.4,0.5l0.4,0.4
	l0.4,0.4l0.4,0.4l0.4,0.3l0.4,0.3l0.4,0.2l0.4,0.2l0.3,0.1h0.3h0.3l0.2-0.1l0.2-0.2l0.2-0.3l0.1-0.4l0.1-0.5v-0.6v-0.6l-0.1-0.7
	l-0.2-0.7l-0.2-0.8l-0.3-0.8l-0.3-0.8l-0.4-0.8l-0.4-0.8l-0.5-0.7l-0.5-0.7l-0.5-0.6l-0.5-0.6L87.2,83l-0.5-0.5l-0.5-0.4l-0.5-0.3
	l-0.5-0.3l-0.5-0.2l-0.4-0.1l-0.4-0.1h-0.4h-0.3l-0.3,0.1l-0.3,0.1l-0.2,0.2l-0.2,0.2l-0.1,0.2L82,82.2l-0.1,0.3v0.3v0.4v0.4L82,84
	l0.1,0.5l0.1,0.5l0.2,0.5l0.2,0.5l0.2,0.6l0.3,0.6l0.3,0.6l0.4,0.6l0.4,0.7l0.4,0.7l0.4,0.7l0.5,0.7l0.5,0.7l0.5,0.7l0.5,0.7
	l0.5,0.7l0.6,0.6l0.6,0.6l0.6,0.5l0.6,0.5l0.6,0.4l0.5,0.3l0.5,0.2H92l0.4-0.1l0.4-0.2l0.3-0.4l0.2-0.5l0.2-0.7l0.1-0.8v-1l-0.1-1.1
	l-0.2-1.1L93,90l-0.4-1.3l-0.5-1.3l-0.5-1.3L91,84.9l-0.7-1.2l-0.7-1.1l-0.8-1L88,80.7l-0.8-0.8l-0.8-0.7l-0.8-0.6l-0.8-0.5
	l-0.7-0.4l-0.7-0.3l-0.6-0.2l-0.6-0.1h-0.6h-0.5l-0.5,0.1l-0.4,0.1l-0.4,0.2l-0.3,0.2l-0.2,0.2l-0.2,0.3L79,78.5l-0.1,0.4v0.4v0.4
	v0.4l0.1,0.5l0.1,0.5l0.1,0.5l0.2,0.6l0.2,0.6l0.3,0.6l0.3,0.7l0.3,0.7l0.4,0.8l0.4,0.8l0.5,0.9l0.5,0.9l0.5,0.9l0.6,1l0.6,1l0.6,1
	l0.7,1l0.7,1.1l0.8,1.1l0.8,1l0.8,1l0.8,1l0.9,0.9L91,100l0.9,0.7l0.8,0.5l0.8,0.3l0.8,0.1l0.7-0.1l0.6-0.4l0.5-0.7l0.4-1l0.2-1.3
	l0.1-1.5l-0.1-1.8l-0.2-2l-0.4-2.1l-0.6-2.2l-0.7-2.2l-0.9-2.1l-1-2l-1.1-1.9l-1.2-1.7l-1.2-1.5l-1.3-1.3l-1.3-1.1l-1.3-0.9
	l-1.2-0.7l-1.2-0.5L82,72.2l-1-0.3l-1-0.2l-0.9-0.1h-0.8h-0.7L77,71.7l-0.6,0.1L75.9,72l-0.4,0.2l-0.4,0.2l-0.3,0.2l-0.3,0.2
	L74.3,73l-0.2,0.2L74,73.4l-0.1,0.2l-0.1,0.2v0.3v0.3v0.3V75l0.1,0.3l0.1,0.3l0.1,0.4l0.1,0.4l0.2,0.4l0.2,0.5l0.2,0.5l0.2,0.5
	l0.3,0.6l0.3,0.6l0.3,0.7l0.4,0.7l0.4,0.8l0.4,0.8l0.5,0.9l0.5,1l0.6,1.1l0.6,1.1l0.7,1.2l0.7,1.3l0.8,1.4l0.9,1.5l0.9,1.6l1,1.7
	l1,1.7l1.1,1.8l1.2,1.8l1.2,1.8l1.3,1.8l1.4,1.7l1.4,1.6l1.4,1.4l1.4,1.1l1.4,0.8l1.3,0.3l1.2-0.2l1.1-0.9l0.9-1.5l0.6-2.2l0.4-2.9
	v-3.5l-0.3-4l-0.7-4.4l-1.1-4.5l-1.4-4.5l-1.7-4.3l-2-3.9l-2.2-3.4L90.9,68l-2.4-2.4l-2.4-1.9l-2.3-1.4l-2.2-1l-2.1-0.7l-2-0.4
	L75.7,60l-1.6-0.1h-1.5L71.3,60l-1.2,0.1L69,60.2l-0.9,0.1l-0.8,0.1h-0.8h-0.7l-0.6-0.1l-0.5-0.1l-0.5-0.1l-0.5-0.2l-0.4-0.2
	l-0.4-0.3L62.5,59l-0.4-0.4l-0.4-0.5l-0.4-0.5L60.9,57l-0.4-0.6L60,55.7L59.5,55L59,54.2l-0.5-0.8L58,52.6l-0.6-0.9l-0.6-0.9l-0.6-1
	l-0.7-1l-0.7-1l-0.7-1l-0.8-1l-0.8-1l-0.8-0.9L50.9,43l-0.8-0.8l-0.8-0.7L48.5,41l-0.8-0.4L47,40.4h-0.7l-0.6,0.3l-0.5,0.5L44.8,42
	l-0.3,1l-0.2,1.3v1.5l0.1,1.7l0.3,1.9l0.5,2l0.6,2l0.8,2l0.9,2l1,1.9l1.1,1.7l1.1,1.6l1.2,1.4l1.2,1.2l1.2,1l1.2,0.8l1.1,0.6
	l1.1,0.5l1,0.4l1,0.2l0.9,0.1l0.8,0.1h0.7l0.7-0.1l0.6-0.1l0.5-0.1l0.5-0.2l0.4-0.2l0.3-0.2l0.3-0.2l0.2-0.2l0.2-0.2l0.1-0.3
	l0.1-0.3l0.1-0.3v-0.3v-0.3v-0.3L66,65.2l-0.1-0.4l-0.1-0.4L65.7,64l-0.2-0.5L65.3,63l-0.2-0.5l-0.3-0.6l-0.3-0.6l-0.3-0.7l-0.4-0.7
	l-0.4-0.8L63,58.3l-0.5-0.9l-0.5-1l-0.6-1l-0.6-1.1l-0.7-1.2l-0.7-1.3l-0.8-1.4L57.8,49l-0.9-1.5l-1-1.6l-1-1.6l-1.1-1.7l-1.1-1.7
	l-1.2-1.7l-1.2-1.6L49,36l-1.3-1.4l-1.3-1.2l-1.3-1l-1.3-0.6l-1.2-0.2l-1.1,0.3l-1,0.8l-0.8,1.4l-0.6,2l-0.3,2.6v3.2l0.3,3.6
	l0.6,3.9l1,4.1l1.3,4.1l1.6,3.9l1.8,3.6l2,3.2l2.1,2.7l2.2,2.3l2.2,1.8l2.1,1.4l2.1,1l2,0.7l1.8,0.5l1.7,0.3l1.5,0.1h1.4h1.3
	l1.1-0.1l1-0.1l0.9-0.1l0.8-0.1h0.7h0.6h0.6l0.5,0.1l0.5,0.1l0.4,0.1l0.4,0.2l0.4,0.2l0.4,0.3l0.4,0.3l0.4,0.4l0.4,0.4l0.4,0.5
	l0.4,0.5l0.4,0.6l0.4,0.6l0.4,0.7l0.5,0.8l0.5,0.8l0.5,0.9l0.6,0.9l0.6,1l0.6,1l0.7,1.1l0.7,1.1l0.8,1.2l0.8,1.2l0.8,1.2l0.9,1.2
	l0.9,1.2l0.9,1.2l1,1.1l1,1l1,0.9l1,0.8l1,0.5l0.9,0.3h0.9l0.8-0.3l0.7-0.6l0.5-1l0.4-1.4l0.2-1.7v-2l-0.2-2.3l-0.4-2.5l-0.6-2.6
	L96.5,86l-1-2.6l-1.2-2.5L93,78.6l-1.4-2.1l-1.5-1.9L88.6,73l-1.5-1.3l-1.5-1.1l-1.5-0.8l-1.4-0.6l-1.3-0.4l-1.2-0.3l-1.1-0.2
	l-1-0.1h-0.9h-0.9l-0.8,0.1l-0.7,0.1l-0.6,0.1l-0.5,0.1l-0.5,0.1l-0.4,0.1l-0.6,1l-0.3,0.1L71.7,70l-0.2,0.1l-0.2,0.1l-0.2,0.1
	L71,70.4l-0.1,0.1l-0.1,0.1h-0.1h-0.1l0,0l0,0l0,0l0,0l0,0l0,0l0,0l0,0l0,0l0,0l0,0l0,0l0,0l0,0l0,0l0,0l0,0l0,0l0,0l0,0l0,0l0,0
	l0,0l0,0l0,0l0,0l0,0l0,0l0,0l0,0l0,0l0,0l0,0l0,0l0,0l0,0l0,0l0,0l0,0l0,0l0,0l0,0l0,0l0,0l0,0l0,0l0,0l0,0l0,0l0,0l0,0l0,0l0,0
	l0,0l0,0l0,0l0,0l0,0l0,0l0,0l0,0l0,0l0,0v-0.1v-0.1v-0.1v-0.1v-0.1V70v-0.1l-0.1-0.1l-0.1-0.1l-0.1-0.1l-0.1-0.2l-0.1-0.2L70,69
	l-0.1-0.2l-0.1-0.3l-0.1-0.3l-0.1-0.3l-0.2-0.4l-0.2-0.4L69,66.7l-0.2-0.5l-0.3-0.5l-0.3-0.6l-0.3-0.7l-0.4-0.8l-0.4-0.8l-0.4-0.9
	l-0.5-1l-0.5-1.1l-0.6-1.3l-0.7-1.4l-0.8-1.6l-0.8-1.7l-0.9-1.9l-1-2.1l-1.1-2.3L58.6,45l-1.4-2.7l-1.5-2.9l-1.6-3.1l-1.8-3.2
	l-1.9-3.3l-2.1-3.4l-2.2-3.3l-2.3-3l-2.4-2.6L39,15.6l-2.4-1l-2.2,0.2l-2,1.7L30.8,20l-1.1,5.3l-0.5,7.1l0.3,8.6l1.1,9.6l2,10
	l2.8,9.7l3.5,8.8l4,7.4l4.3,5.9l4.5,4.3l4.5,2.9l4.3,1.8l4.1,1l3.8,0.3l3.4-0.1l3.1-0.4l2.7-0.5L80,101l2.1-0.8l1.8-0.8l1.5-0.9
	l1.3-1l1.1-1l0.9-1.1l0.7-1.2l0.5-1.2l0.3-1.3l0.1-1.3v-1.3l-0.1-1.3L90,86.6l-0.3-1.2l-0.4-1.1l-0.5-1.1l-0.5-1l-0.6-0.9l-0.6-0.8
	l-0.6-0.7l-0.6-0.6l-0.6-0.5l-0.6-0.4L84.1,78l-0.6-0.2L83,77.7l-0.5-0.1h-0.4l-0.4,0.1l-0.4,0.1L81,77.9l-0.3,0.2l-0.2,0.2
	l-0.2,0.3l-0.1,0.3l-0.1,0.3v0.4v0.2v0.4l0.1,0.5l0.1,0.5l0.1,0.5l0.2,0.6l0.2,0.6l0.3,0.6l0.3,0.7l0.3,0.7l0.4,0.8l0.4,0.8l0.5,0.8
	l0.5,0.9l0.5,0.9l0.6,1l0.6,1l0.6,1l0.7,1l0.7,1l0.8,1l0.8,1l0.8,1l0.8,1l0.8,0.9l0.9,0.8l0.8,0.7l0.8,0.5l0.8,0.3l0.8,0.1l0.7-0.1
	l0.6-0.4l0.5-0.7l0.4-0.9l0.2-1.2l0.1-1.5v-1.7L97.6,93l-0.4-2l-0.5-2.1L96,86.7l-0.9-2.1l-1-2L93,80.7L91.8,79l-1.2-1.5l-1.3-1.3
	L88,75.1l-1.2-0.9l-1.2-0.7l-1.2-0.6l-1.1-0.4l-1-0.3l-1-0.2l-0.9-0.1h-0.8h-0.7l-1.7-0.1l-0.6,0.1l-0.5,0.2l-0.4,0.2l-0.4,0.2
	L75,72.7l-0.3,0.2l-0.2,0.2l-0.2,0.2l-0.1,0.2l-0.1,0.2L74,74v0.3v0.3v0.3l0.1,0.3l0.1,0.3l0.1,0.4l0.1,0.4l0.2,0.4l0.2,0.4l0.2,0.5
	l0.2,0.5l0.3,0.5l0.3,0.6l0.3,0.6l0.4,0.7l0.4,0.7l0.4,0.8l0.5,0.9l0.5,0.9l0.5,1l0.6,1.1l0.6,1.2l0.7,1.3l0.8,1.4l0.8,1.4l0.9,1.5
	l0.9,1.6l1,1.7l1.1,1.8l1.1,1.8l1.2,1.8l1.3,1.8l1.3,1.8l1.4,1.6l1.4,1.5l1.4,1.3l1.4,1l1.3,0.5l1.3,0.1l1.1-0.5l1-1.1l0.8-1.8
	l0.5-2.5l0.2-3.1l-0.1-3.7l-0.5-4.1l-0.9-4.4l-1.2-4.5l-1.5-4.4l-1.8-4.1l-2-3.7l-2.2-3.2l-2.3-2.6l-2.3-2.1l-2.3-1.6l-2.2-1.2
	l-2.1-0.9l-2-0.5l-1.9-0.3l-1.7-0.2h-1.5H73l-1.3,0.1l-1.1,0.1l-1,0.1l-0.9,0.1L67.9,61h-0.7h-0.6L66,60.9l-0.5-0.1L65,60.6
	l-0.5-0.2l-0.4-0.3l-0.4-0.3l-0.4-0.4L62.9,59l-0.4-0.5L62.1,58l-0.4-0.6l-0.4-0.6l-0.5-0.7l-0.5-0.7l-0.5-0.8l-0.5-0.8l-0.5-0.9
	L58.2,52l-0.6-1L57,50l-0.7-1l-0.7-1l-0.8-1L54,46l-0.8-1l-0.8-1l-0.8-0.9l-0.9-0.9l-0.9-0.7L49,40.9l-0.8-0.4l-0.8-0.2h-0.7
	l-0.6,0.2L45.5,41L45,41.8l-0.3,1.1l-0.2,1.4v1.6l0.1,1.8l0.3,2l0.5,2.1l0.6,2.1l0.8,2.1l0.9,2.1l1,2l1.1,1.8l1.2,1.6l1.2,1.5
	l1.3,1.2l1.3,1L56,68l1.2,0.7l1.1,0.5l1.1,0.4l1,0.2l0.9,0.1h0.9H63l0.7-0.1l0.6-0.1l0.5-0.1l0.5-0.2l0.4-0.2l0.4-0.2l0.3-0.2
	l0.2-0.2l0.2-0.2l0.2-0.2l0.1-0.2l0.1-0.2v-0.3v-0.3v-0.3v-0.3l-0.1-0.3L67,66l-0.1-0.4l-0.1-0.4l-0.2-0.4l-0.2-0.4l-0.2-0.5
	L66,63.4l-0.3-0.6l-0.3-0.6l-0.3-0.6l-0.4-0.7l-0.4-0.8l-0.4-0.8l-0.5-0.9l-0.5-1l-0.6-1l-0.6-1.1L61,54.1l-0.7-1.3l-0.8-1.4
	l-0.8-1.5l-0.9-1.6l-1-1.6l-1-1.7l-1.1-1.8l-1.2-1.8l-1.2-1.8L51,37.8l-1.3-1.7l-1.4-1.6l-1.4-1.4l-1.4-1.2l-1.4-0.8l-1.3-0.4
	l-1.2,0.1l-1.1,0.7l-0.9,1.4L38.9,35l-0.4,2.7l-0.1,3.4l0.2,3.9l0.6,4.2l1,4.4l1.3,4.5l1.6,4.3l1.9,4l2.1,3.5l2.2,3l2.3,2.5l2.3,2
	l2.3,1.5l2.2,1.1l2.1,0.7l2,0.5l1.8,0.3l1.7,0.1h1.5H69l1.2-0.1l1.1-0.1l1-0.1l0.9-0.1H74h0.7h0.6l0.6,0.1l0.5,0.1l0.5,0.2l0.4,0.2
	l0.4,0.3l0.4,0.3l0.4,0.4l0.4,0.4l0.4,0.5l0.4,0.5l0.4,0.6l0.4,0.6l0.5,0.7l0.5,0.7l0.5,0.8l0.5,0.8l0.6,0.9l0.6,0.9l0.6,1l0.7,1
	l0.7,1l0.7,1l0.8,1l0.8,1l0.8,1l0.8,1l0.8,0.9l0.9,0.8l0.8,0.7l0.8,0.5l0.8,0.3l0.8,0.1l0.7-0.1l0.6-0.4l0.5-0.6l0.4-0.9l0.3-1.2
	l0.1-1.5v-1.7l-0.2-1.9l-0.4-2L96,89.1L95.3,87l-0.8-2.1l-1-2L92.3,81l-1.1-1.7L90,77.8l-1.2-1.4l-1.3-1.1l-1.2-1l-1.2-0.8L84,72.9
	l-1.1-0.4l-1-0.3l-1-0.2L80,71.9h-0.8h-0.7L77.8,72l-0.6,0.1l-0.5,0.2l-0.4,0.2l-0.4,0.2l-0.3,0.2l-0.3,0.2l-0.2,0.2l-0.2,0.2
	l-0.1,0.2L74.7,74l-0.1,0.3v0.3v0.2v0.3l0.1,0.3l0.1,0.3l0.1,0.4l0.1,0.4l0.2,0.4l0.2,0.4l0.2,0.5l0.2,0.5l0.3,0.5l0.3,0.6l0.3,0.6
	l0.4,0.7l0.4,0.8l0.4,0.8l0.5,0.9l0.5,1l0.5,1l0.6,1.1l0.6,1.2l0.7,1.3l0.8,1.4l0.8,1.5l0.9,1.5l1,1.6l1,1.7l1.1,1.7L88,100l1.2,1.8
	l1.3,1.8l1.3,1.7l1.4,1.6l1.4,1.4l1.4,1.2l1.4,0.8l1.3,0.4l1.2-0.1l1.1-0.6l0.9-1.3l0.7-2l0.4-2.6l0.1-3.2l-0.2-3.8l-0.6-4.1
	l-0.9-4.4l-1.3-4.4L98.4,80l-1.8-3.9l-2-3.5l-2.2-3l-2.3-2.5l-2.3-2l-2.3-1.5l-2.2-1.1l-2.1-0.8l-2-0.5l-1.8-0.3l-1.7-0.1h-1.5h-1.4
	l-1.2,0.1L70.5,61l-1,0.1l-0.9,0.1h-0.8h-0.7h-0.6l-0.6-0.1L65.4,61l-0.5-0.2l-0.4-0.2l-0.4-0.3L63.7,60l-0.4-0.4L63,59.2l-0.4-0.5
	l-0.4-0.5l-0.4-0.6L61.4,57l-0.5-0.7l-0.5-0.7l-0.5-0.8L59.4,54l-0.6-0.9l-0.6-0.9l-0.6-1l-0.7-1l-0.7-1l-0.7-1.1L54.7,47l-0.8-1.1
	l-0.8-1.1l-0.8-1l-0.9-1l-0.9-0.9l-0.9-0.8l-0.9-0.6L47.9,40l-0.8-0.3h-0.8l-0.7,0.2L45,40.4l-0.5,0.8l-0.4,1.1l-0.2,1.4l-0.1,1.6
	l0.1,1.9l0.3,2l0.5,2.2l0.6,2.2l0.8,2.2L47,58l1.1,2l1.2,1.9l1.2,1.7l1.3,1.5l1.3,1.3l1.3,1.1l1.3,0.9l1.2,0.7l1.2,0.5l1.1,0.4
	l1,0.2l1,0.1l0.9,0.1h0.8l0.7-0.1l0.6-0.1l0.6-0.1l0.5-0.2l0.4-0.2l0.4-0.2l0.3-0.2l0.3-0.2l0.2-0.2l0.2-0.2l0.1-0.2l0.1-0.2
	l0.1-0.2v-0.2v-0.2v-0.3v-0.3l-0.1-0.3l-0.1-0.3l-0.1-0.3L67,65.8l-0.2-0.4L66.6,65l-0.2-0.5L66.2,64L66,63.5l-0.3-0.6l-0.3-0.6
	l-0.3-0.7l-0.4-0.7l-0.4-0.8l-0.5-0.9l-0.5-0.9l-0.5-1l-0.6-1.1L61.6,55l-0.7-1.2l-0.7-1.3l-0.8-1.4l-0.9-1.5L57.6,48l-1-1.7
	l-1.1-1.8l-1.1-1.9l-1.2-1.9l-1.3-1.9l-1.3-1.9l-1.4-1.8l-1.4-1.7l-1.5-1.5l-1.5-1.2l-1.4-0.8L42,29.6l-1.3,0.2l-1.1,0.9l-0.9,1.6
	L38,34.6l-0.4,3v3.7l0.4,4.2l0.7,4.6l1.1,4.8l1.5,4.7l1.8,4.5l2.1,4l2.3,3.5l2.4,3l2.5,2.4l2.5,1.9l2.4,1.4l2.3,1l2.1,0.6l2,0.4
	l1.8,0.2h1.7h1.5l1.4-0.1l1.2-0.1l1.1-0.1l1-0.1l0.9-0.1h0.8h0.7l0.6,0.1l0.6,0.1l0.5,0.2l0.5,0.2l0.5,0.3l0.4,0.3l0.4,0.4l0.4,0.4
	l0.4,0.5l0.4,0.5l0.4,0.6l0.4,0.6l0.5,0.7l0.5,0.7l0.5,0.7l0.5,0.8l0.5,0.8l0.6,0.9l0.6,0.9l0.6,0.9l0.7,0.9l0.7,0.9l0.7,0.9
	l0.7,0.9l0.7,0.8l0.8,0.8l0.8,0.7l0.8,0.6l0.7,0.5l0.7,0.3l0.7,0.1h0.6l0.5-0.3l0.5-0.5l0.4-0.7l0.3-0.9l0.1-1.2v-1.6l-0.1-1.5
	l-0.3-1.7l-0.4-1.8L94.7,88L94,86.2l-0.8-1.8l-0.9-1.7l-1-1.6l-1-1.4l-1.1-1.3l-1.1-1.1L87,76.4l-1.1-0.8l-1-0.6l-1-0.5l-1-0.4
	L82,73.9l-0.8-0.1l-0.8-0.1h-0.7l-0.6,0.1l-0.5,0.1L78.1,74l-0.4,0.2l-0.4,0.2L77,74.6l-0.2,0.3l-0.2,0.3l-0.1,0.3l-0.1,0.3
	l-0.1,0.3v0.4v0.4l0.1,0.4l0.1,0.4l0.1,0.5l0.1,0.5l0.2,0.5l0.2,0.5l0.2,0.6l0.3,0.6l0.3,0.7l0.4,0.7l0.4,0.8l0.4,0.8l0.5,0.9l0.5,1
	l0.5,1l0.6,1.1l0.6,1.1l0.7,1.2l0.8,1.3l0.8,1.3l0.9,1.4l0.9,1.4l1,1.5l1,1.5l1.1,1.5l1.1,1.4l1.1,1.4l1.2,1.3l1.2,1.1l1.2,0.9
	l1.1,0.6l1.1,0.3l1-0.1l0.9-0.5l0.8-1l0.6-1.5l0.4-2l0.1-2.4l-0.1-2.8l-0.4-3.1l-0.6-3.3L98.8,87l-1.2-3.4l-1.4-3.2l-1.6-3l-1.7-2.7
	l-1.8-2.3l-1.9-1.9l-1.9-1.6l-1.8-1.2l-1.8-0.9L82,66.1l-1.6-0.5l-1.5-0.3l-1.4-0.1h-1.2h-1.1l-1,0.1l-0.9,0.1l-0.8,0.1l-0.7,0.1
	l-0.6,0.1l-0.6,0.1h-0.5h-0.4h-0.4l-0.4-0.1l-0.3-0.1l-0.3-0.1L68,65.4l-0.3-0.2L67.4,65l-0.3-0.2l-0.2-0.3l-0.3-0.3l-0.3-0.4
	l-0.3-0.4l-0.3-0.5l-0.3-0.5L65,61.9l-0.4-0.6l-0.4-0.6L63.8,60l-0.4-0.8l-0.5-0.8l-0.5-0.9l-0.5-1l-0.6-1l-0.6-1.1L60,53.2
	l-0.7-1.3l-0.8-1.4l-0.9-1.4l-0.9-1.5l-1-1.6l-1-1.6l-1.1-1.6l-1.1-1.7l-1.2-1.6l-1.2-1.6l-1.3-1.5l-1.3-1.3L46.2,34l-1.3-0.8
	l-1.2-0.4h-1.1l-1,0.5l-0.9,1.1L40,36l-0.5,2.2L39.3,41l0.1,3.3l0.4,3.6l0.8,3.9l1.1,4l1.4,3.9l1.6,3.7l1.8,3.4l2,3l2.1,2.5l2.1,2.1
	l2.1,1.6l2.1,1.2l2,0.9l1.9,0.6l1.7,0.4l1.6,0.2l1.5,0.1H67h1.2l1.1-0.1l1-0.1l0.9-0.1L72,79h0.7h0.6h0.5l0.5,0.1l0.5,0.1l0.4,0.1
	l0.4,0.2l0.4,0.2l0.4,0.3l0.4,0.3l0.4,0.4l0.4,0.4l0.4,0.5l0.4,0.5l0.4,0.6l0.4,0.6l0.4,0.7l0.5,0.8l0.5,0.8l0.5,0.9l0.5,0.9l0.6,1
	l0.6,1l0.7,1.1l0.7,1.1l0.8,1.2l0.8,1.2l0.8,1.3l0.9,1.3l0.9,1.3l1,1.3l1,1.2l1,1.1l1,1l1,0.9l1,0.7l1,0.5l0.9,0.2l0.9-0.1l0.8-0.5
	l0.6-0.9L99,102l0.3-1.6l0.1-2l-0.1-2.3L99,93.5l-0.5-2.8l-0.8-2.8l-1-2.8l-1.2-2.7l-1.3-2.6l-1.4-2.3l-1.5-2.1l-1.6-1.8l-1.6-1.5
	l-1.6-1.2L85,70l-1.5-0.7l-1.4-0.5l-1.3-0.3l-1.2-0.2l-1.1-0.1h-1h-0.9l-0.8,0.1l-0.7,0.1l-0.6,0.1l-0.6,0.1l-0.5,0.1L73,68.8
	l-0.4,0.1L72.3,69L72,69.1l-0.3,0.1h-0.2h-0.2h-0.2h-0.2h-0.1h-0.1h-0.1l-0.1-0.1L70.4,69l-0.1-0.1l-0.1-0.1l-0.1-0.1L70,68.6
	l-0.1-0.2l-0.1-0.2L69.7,68l-0.1-0.2l-0.1-0.2l-0.1-0.3l-1.2-0.5L68,66.5l-0.2-0.4l-0.2-0.4l-0.2-0.4l-0.2-0.5l-0.3-0.5l-0.3-0.6
	l-0.3-0.6l-0.4-0.7l-0.4-0.8l-0.4-0.8l-0.5-0.9l-0.5-1l-0.6-1.1l-0.6-1.2l-0.7-1.3l-0.7-1.4l-0.8-1.5l-0.9-1.6L59,49l-1-1.9l-1.1-2
	L55.7,43l-1.3-2.2L53,38.5l-1.5-2.3L50,33.9l-1.6-2.2l-1.7-2.1L45,27.8l-1.7-1.5l-1.7-1L40,24.9l-1.5,0.4l-1.3,1.3L36,28.9l-0.7,3.3
	L35,36.4l0.1,5.1l0.6,5.7l1.1,6.1l1.6,6.1l2.1,5.9l2.5,5.3l2.7,4.6l2.9,3.8l3,3l3,2.3l2.9,1.6l2.8,1.1l2.6,0.6l2.4,0.3l2.2,0.1h2
	l1.8-0.1l1.6-0.2l1.4-0.2l1.3-0.2l1.1-0.2l1-0.1l0.9-0.1l0.8-0.1h0.7h0.6l0.6,0.1l0.5,0.1l0.5,0.1l0.4,0.2l0.4,0.2l0.4,0.2L84,88
	l0.4,0.3l0.4,0.3l0.4,0.3l0.4,0.4l0.4,0.4l0.4,0.4l0.4,0.4l0.4,0.4l0.4,0.3l0.4,0.3l0.4,0.3l0.4,0.3l0.3,0.2l0.3,0.2l0.3,0.1
	l0.3,0.1h0.3h0.2l0.2-0.1l0.2-0.2l0.2-0.2l0.1-0.3l0.1-0.4v-0.4v-0.3l-0.1-0.5L91,89.7l-0.1-0.6l-0.2-0.6l-0.2-0.6l-0.3-0.6
	l-0.3-0.6l-0.3-0.6l-0.4-0.6L88.8,85l-0.4-0.5L88,84l-0.4-0.4l-0.4-0.4l-0.4-0.3l-0.4-0.3L86,82.4l-0.4-0.2l-0.4-0.1L84.9,82h-0.3
	h-0.3l-0.2,0.1l-0.2,0.1l-0.2,0.1l-0.1,0.2l-0.4,0.3l-0.1,0.3v0.3v0.3v0.4v0.4l0.1,0.4l0.1,0.4l0.1,0.5l0.2,0.5l0.2,0.5l0.2,0.5
	l0.3,0.5l0.3,0.6l0.3,0.6l0.3,0.6l0.4,0.6l0.4,0.6l0.4,0.6l0.4,0.6l0.4,0.6l0.5,0.5l0.5,0.5l0.5,0.5l0.5,0.4l0.5,0.4l0.5,0.3
	l0.4,0.2l0.4,0.1h0.4l0.3-0.1l0.3-0.2l0.2-0.3l0.2-0.4l0.1-0.5l0.1-0.6v-0.7l-0.1-0.8L92.4,91l-0.2-0.9l-0.3-1l-0.4-1l-0.4-1l-0.5-1
	l-0.5-0.9l-0.6-0.9l-0.6-0.8l-0.6-0.7l-0.6-0.7l-0.6-0.6L86.5,81l-0.6-0.4l-0.6-0.3L84.7,80l-0.5-0.2l-0.5-0.1h-0.5h-0.4l-0.4,0.1
	l-0.3,0.1L81.8,80l-0.2,0.2l-0.2,0.2l-0.2,0.3L81.1,81L81,81.3v0.4v0.4l0.1,0.4l0.1,0.5l0.1,0.5l0.2,0.5l0.2,0.6l0.2,0.6l0.3,0.6
	l0.3,0.7l0.4,0.7l0.4,0.7l0.4,0.8l0.5,0.8l0.5,0.8l0.5,0.8l0.5,0.8l0.6,0.9l0.6,0.9l0.6,0.8l0.6,0.8l0.7,0.8l0.7,0.7l0.7,0.7
	l0.7,0.6l0.7,0.5l0.6,0.4l0.6,0.2h0.6l0.5-0.1l0.5-0.3l0.4-0.5l0.3-0.7l0.2-0.9l0.1-1.1v-1.3l-0.2-1.4l-0.3-1.5l-0.4-1.6L94,88.2
	l-0.6-1.6L92.7,85l-0.8-1.5L91,82.1l-0.9-1.3l-1-1.1l-1-1l-1-0.8l-1-0.7l-0.9-0.6l-0.9-0.4l-0.9-0.3l-0.8-0.2l-0.8-0.1l-0.7-0.1
	h-0.6l-0.6,0.1l-0.5,0.1L79,75.9l-0.4,0.2l-0.3,0.2L78,76.6l-0.2,0.3l-0.2,0.3l-0.1,0.3l-0.1,0.4v0.4v0.4l0.1,0.4l0.1,0.5l0.1,0.5
	l0.2,0.5l0.2,0.5l0.2,0.6l0.3,0.6l0.3,0.7l0.3,0.7l0.4,0.8l0.4,0.8l0.5,0.9l0.5,0.9l0.5,1l0.6,1l0.6,1.1l0.7,1.1l0.7,1.2l0.8,1.2
	l0.8,1.3l0.9,1.3l0.9,1.3l1,1.3l1,1.3l1,1.2l1,1.1l1,1l1,0.9l1,0.6l1,0.4l0.9,0.1l0.8-0.3l0.7-0.7l0.6-1.1l0.4-1.5l0.2-1.9v-2.2
	l-0.2-2.5l-0.4-2.8l-0.7-2.9l-0.9-2.9l-1.1-2.9l-1.3-2.7l-1.4-2.5l-1.5-2.2l-1.6-2l-1.6-1.6l-1.6-1.4l-1.6-1.1l-1.6-0.8l-1.5-0.6
	l-1.4-0.4l-1.3-0.3l-1.2-0.1L77.1,68h-1l-0.9,0.1l-0.8,0.1l-0.7,0.1l-0.6,0.1l-0.5,0.1l-0.5,0.1l-0.4,0.1l-0.4,0.1L71,68.9h-0.3
	h-0.2h-0.2h-0.2h-0.2h-0.2l-0.1-0.1l-0.1-0.1l-0.1-0.1l-0.1-0.1l-0.1-0.1l-0.1-0.2L69,68l-0.1-0.2l-0.1-0.2l-0.1-0.2l-0.2-0.3
	l-0.2-0.3l-0.2-0.3l-0.2-0.4l-0.2-0.4l-0.2-0.5l-0.3-0.5l-0.3-0.5l-0.3-0.6L66.3,63l-0.4-0.7l-0.4-0.8l-0.4-0.8l-0.5-0.9l-0.5-1
	l-0.6-1.1l-0.6-1.2l-0.7-1.3l-0.7-1.4l-0.8-1.5l-0.9-1.6l-1-1.7l-1-1.8l-1.1-1.9l-1.2-2l-1.3-2.1L52.8,39l-1.4-2.2l-1.5-2.1l-1.6-2
	l-1.6-1.9l-1.6-1.6L43.5,28l-1.6-0.7l-1.5-0.1L39,27.9l-1.2,1.5l-0.9,2.4l-0.6,3.3l-0.2,4.1l0.2,4.9l0.7,5.4l1.2,5.6l1.6,5.6l2,5.3
	l2.4,4.8l2.6,4.2l2.8,3.5l2.8,2.7l2.8,2.1l2.7,1.5l2.6,1l2.5,0.6l2.3,0.3l2.1,0.1h1.9l1.7-0.1l1.5-0.1l1.3-0.2l1.2-0.2l1.1-0.1
	L77,86l0.8-0.1h0.7h0.7l0.6,0.1l0.5,0.1l0.5,0.2l0.5,0.2l0.5,0.3l0.4,0.3l0.4,0.4l0.4,0.4l0.4,0.4l0.4,0.5l0.4,0.5l0.4,0.5l0.4,0.5
	l0.4,0.5l0.5,0.5l0.5,0.5l0.5,0.5l0.5,0.5l0.5,0.5l0.5,0.5l0.5,0.4l0.5,0.4l0.5,0.3l0.5,0.3l0.4,0.2l0.4,0.1h0.4l0.3-0.1l0.3-0.2
	l0.2-0.3l0.2-0.4l0.1-0.5l0.1-0.6v-0.7l-0.1-0.8L92.6,91l-0.2-0.9l-0.3-1l-0.4-1l-0.4-1l-0.5-1l-0.5-0.9l-0.6-0.9l-0.6-0.8l-0.6-0.7
	l-0.6-0.6l-0.6-0.6l-0.6-0.5l-0.6-0.4l-0.6-0.3l-0.6-0.2L84.4,80l-0.5-0.1h-0.5H83L82.6,80l-0.3,0.1L82,80.2l-0.2,0.2l-0.2,0.2
	l-0.2,0.3l-0.1,0.3l-0.1,0.3v0.4v-0.1l0.1,0.4l0.1,0.5l0.1,0.5l0.2,0.5l0.2,0.6l0.2,0.6l0.3,0.6l0.3,0.7l0.4,0.7l0.4,0.7l0.4,0.8
	l0.5,0.8l0.5,0.8l0.5,0.8l0.5,0.8l0.6,0.8l0.6,0.8l0.6,0.8l0.6,0.8l0.7,0.8l0.7,0.7l0.7,0.6l0.7,0.6l0.7,0.5l0.6,0.3l0.6,0.2h0.6
	l0.5-0.1l0.5-0.3l0.4-0.5l0.3-0.7l0.2-0.9l0.1-1.1v-1.3l-0.2-1.4l-0.3-1.5l-0.4-1.6l-0.5-1.6l-0.6-1.6l-0.7-1.5l-0.8-1.5l-0.9-1.4
	l-0.9-1.2l-1-1.1l-1-1l-1-0.8l-1-0.7l-0.9-0.5l-0.9-0.4l-0.9-0.3l-0.8-0.2l-0.7-0.1h-0.7h-0.6l-0.5,0.1l-0.5,0.1l-0.4,0.2L79,75.8
	L78.7,76l-0.3,0.3l-0.2,0.3L78,76.9l-0.1,0.3l-0.1,0.4V78v0.4l0.1,0.4l0.1,0.5l0.1,0.5l0.2,0.5l0.2,0.6l0.2,0.6l0.3,0.6l0.3,0.7
	l0.4,0.7l0.4,0.8l0.4,0.8L81,86l0.5,0.9l0.5,1l0.6,1l0.6,1.1l0.7,1.2l0.7,1.2l0.8,1.2l0.8,1.3l0.9,1.3l0.9,1.3l1,1.3l1,1.3l1,1.2
	l1,1.1l1,1l1,0.8l1,0.5l1,0.3h0.9l0.8-0.4l0.7-0.8l0.5-1.2l0.4-1.6l0.2-2v-2.3l-0.3-2.6l-0.5-2.8L98,88.4l-0.9-2.9L96,82.7l-1.3-2.6
	l-1.4-2.4l-1.5-2.1l-1.6-1.9l-1.6-1.6L87,70.8l-1.6-1L83.9,69l-1.4-0.5l-1.4-0.4l-1.3-0.2l-1.2-0.1h-1h-1l-0.9,0.1L74.9,68l-0.7,0.1
	l-0.6,0.1l-0.5,0.1l-0.5,0.1l-0.4,0.1l-0.4,0.1l-0.3,0.1l-0.3,0.1H71h-0.2h-0.2h-0.2h-0.1h-0.1l-0.1-0.1L70,68.6l-0.1-0.1l-0.1-0.1
	l-0.1-0.1l-0.1-0.1L69.5,68l-0.1-0.2l-0.1-0.2l-0.1-0.2l-0.1-0.3l-0.9-0.3L68,66.5l-0.2-0.4l-0.2-0.4l-0.2-0.4l-0.2-0.5l-0.3-0.5
	l-0.3-0.5l-0.3-0.6L66,62.5l-0.4-0.7L65.2,61l-0.5-0.9l-0.5-0.9l-0.5-1l-0.6-1.1l-0.6-1.2l-0.7-1.3L61,53.2l-0.8-1.5L59.3,50l-1-1.8
	l-1.1-1.9l-1.1-2l-1.2-2.1L53.6,40l-1.4-2.2l-1.5-2.2l-1.6-2.2l-1.6-2.1l-1.7-1.9l-1.7-1.6l-1.7-1.2L40.8,26l-1.5,0.1L37.9,27
	l-1.1,1.8l-0.9,2.7l-0.5,3.7l-0.1,4.5l0.4,5.2l0.9,5.7l1.4,5.9l1.8,5.8l2.2,5.4l2.5,4.8l2.8,4.1l2.9,3.3l2.9,2.6l2.9,1.9l2.8,1.3
	l2.6,0.9l2.5,0.5l2.3,0.2h2.1l1.9-0.1l1.7-0.1l1.5-0.2l1.3-0.2l1.2-0.2l1-0.1l0.9-0.1l0.8-0.1h0.7h0.6l0.6,0.1l0.5,0.1l0.5,0.2
	l0.5,0.2l0.4,0.2l0.4,0.3l0.4,0.3l0.4,0.4l0.4,0.4l0.4,0.4l0.4,0.4l0.4,0.4l0.4,0.4l0.4,0.5l0.4,0.5l0.4,0.4l0.4,0.4l0.4,0.4
	l0.4,0.4l0.4,0.3l0.4,0.3l0.4,0.2l0.4,0.2l0.4,0.1l0.3,0.1h0.3l0.3-0.1l0.2-0.2l0.2-0.3l0.1-0.4l0.1-0.4v-0.5v-0.6l-0.1-0.6L91.3,90
	l-0.2-0.7l-0.2-0.8l-0.3-0.8l-0.3-0.8l-0.4-0.8l-0.4-0.7L89,84.7L88.5,84L88,83.4l-0.5-0.5L87,82.4L86.5,82L86,81.6l-0.5-0.3
	L85,81.1l-0.5-0.2l-0.4-0.1l-0.4-0.1h-0.4H83l-0.3,0.1l-0.2,0.1l-0.2,0.2l-0.2,0.2L82,81.5l-0.1,0.3l-0.1,0.3v0.4v0.4v0.4l0.1,0.4
	l0.1,0.5l0.2,0.5l0.2,0.5l0.2,0.6l0.3,0.6l0.3,0.6l0.3,0.6l0.4,0.6l0.4,0.7l0.4,0.7l0.4,0.7l0.5,0.7l0.5,0.7l0.5,0.7l0.5,0.7
	l0.5,0.6l0.5,0.6l0.6,0.6l0.6,0.5l0.6,0.4l0.5,0.3l0.5,0.2l0.5,0.1h0.5l0.4-0.1l0.4-0.3l0.3-0.4l0.2-0.6l0.1-0.7v-0.9v-1l-0.1-1.1
	L93,90.1l-0.3-1.2l-0.4-1.2l-0.5-1.2l-0.6-1.2l-0.6-1.2L89.9,83l-0.7-1l-0.8-0.9l-0.8-0.8l-0.8-0.7L86,79l-0.8-0.5l-0.7-0.4
	l-0.7-0.3l-0.7-0.2l-0.6-0.1l-0.6-0.1h-0.5h-0.5l-0.4,0.1l-0.4,0.1l-0.3,0.2L79.5,78l-0.2,0.3l-0.2,0.3L79,78.9l-0.1,0.4v0.4v0.4
	l0.1,0.5l0.1,0.5l0.1,0.5l0.2,0.5l0.2,0.6l0.2,0.6l0.3,0.7l0.3,0.7l0.4,0.7l0.4,0.8l0.4,0.8l0.5,0.9l0.5,0.9l0.5,0.9l0.6,1l0.6,1
	l0.7,1l0.7,1l0.7,1l0.8,1l0.8,1l0.8,1l0.8,0.9l0.8,0.8l0.8,0.7l0.8,0.6l0.8,0.4l0.8,0.2h0.7l0.6-0.3l0.5-0.6l0.4-0.9l0.3-1.1
	l0.1-1.4v-1.6L96,93.6l-0.3-2l-0.5-2.1l-0.6-2.1l-0.8-2.1l-0.9-2l-1-1.9l-1.1-1.8L89.6,78l-1.2-1.4l-1.2-1.2l-1.2-1l-1.2-0.8
	L83.6,73l-1.1-0.5l-1-0.3l-1-0.2l-0.9-0.1h-0.8H78L77.3,72l-0.6,0.1l-0.5,0.1l-0.5,0.2l-0.4,0.2l-0.1,0.2L74.9,73l-0.2,0.2l-0.2,0.2
	l-0.1,0.2l-0.1,0.3l-0.1,0.3v0.3v0.3v0.3v0.3l0.1,0.3l0.1,0.4l0.1,0.4l0.2,0.4l0.2,0.4l0.2,0.5l0.2,0.5l0.3,0.5l0.3,0.6l0.3,0.6
	l0.4,0.7l0.4,0.8l0.4,0.8l0.5,0.9l0.5,1l0.5,1l0.6,1.1l0.6,1.2l0.7,1.3l0.8,1.4l0.8,1.5l0.9,1.5l1,1.6l1,1.7l1.1,1.7l1.1,1.8
	l1.2,1.8l1.3,1.8l1.3,1.7l1.4,1.6l1.4,1.4l1.4,1.1l1.4,0.8l1.3,0.4l1.2-0.1l1.1-0.7l0.9-1.3l0.7-2l0.4-2.6l0.1-3.2l-0.2-3.7
	l-0.6-4.1l-0.9-4.3l-1.3-4.3L98,80.1l-1.8-3.9l-2-3.5l-2.2-3l-2.3-2.5l-2.3-2l-2.3-1.5l-2.2-1.1l-2.1-0.8l-2-0.5L77,61l-1.6-0.1
	h-1.5h-1.4L71.3,61l-1.1,0.1l-1,0.1l-0.9,0.1h-0.8h-0.7h-0.6l-0.5-0.1l-0.5-0.1l-0.5-0.2l-0.4-0.2l-0.4-0.3l-0.4-0.3l-0.4-0.4
	l-0.4-0.4l-0.4-0.5l-0.4-0.5l-0.4-0.6l-0.4-0.6l-0.5-0.7l-0.5-0.7l-0.5-0.8l-0.5-0.8l-0.5-0.9L58,52.3l-0.6-1l-0.6-1l-0.7-1
	l-0.7-1.1l-0.8-1.1L53.8,46L53,44.9l-0.9-1l-0.9-1L50.3,42l-0.9-0.8l-0.9-0.7L47.7,40l-0.8-0.3L46,39.6l-0.7,0.1l-0.6,0.4l-0.5,0.7
	l-0.4,1l-0.2,1.3l-0.1,1.6l0.1,1.9l0.2,2l0.4,2.2l0.6,2.3l0.8,2.3l0.9,2.2l1.1,2.1l1.2,2l1.2,1.8l1.3,1.6l1.3,1.4l1.3,1.1l1.3,0.9
	l1.3,0.7l1.2,0.5l1.1,0.4l1.1,0.3l1,0.2l0.9,0.1h0.8l0.7-0.1l0.7-0.1l0.6-0.1l0.5-0.2l0.5-0.2l0.4-0.2l0.3-0.2l0.3-0.2l0.2-0.2
	l0.2-0.2l0.1-0.2l0.1-0.2l0.1-0.2v-0.2V68v-0.2v-0.2v-0.3L67.3,67l-0.1-0.3l-0.1-0.3L67,66.1l-0.1-0.4l-0.2-0.4l-0.2-0.4l-0.2-0.5
	l-0.2-0.5l-0.3-0.5l-0.3-0.6l-0.3-0.6l-0.4-0.7l-0.4-0.7L64,60l-0.5-0.9l-0.5-1l-0.5-1L61.9,56l-0.6-1.2l-0.7-1.3l-0.8-1.4L59,50.6
	L58.1,49l-1-1.7l-1-1.8L55,43.6l-1.2-1.9"/>
</svg>
