<?xml version="1.0" encoding="utf-8"?>
<!-- Generator: Adobe Illustrator 27.1.1, SVG Export Plug-In . SVG Version: 6.00 Build 0)  -->
<svg version="1.1" id="Layer_1" xmlns="http://www.w3.org/2000/svg" xmlns:xlink="http://www.w3.org/1999/xlink" x="0px" y="0px"
	 viewBox="0 0 239 234" style="enable-background:new 0 0 239 234;" xml:space="preserve">
<style type="text/css">
	.st0{fill:#CBCBCB;}
	.st1{fill:#C7C7C7;}
	.st2{fill:#A6A6A6;}
	.st3{fill:#B6B6B6;}
	.st4{fill:#B0B0AF;}
	.st5{fill:#BFBFBF;}
	.st6{fill:#2A2A2A;}
	.st7{fill:#3F3F3F;}
	.st8{fill:#646464;}
	.st9{fill:#F2F2F2;}
</style>
<path class="st0" d="M36.5,104.4c-0.4-4.7-0.4-9.1-0.4-14c2.1-2.3,4.6-1.8,7.4-1.8c1.4,0,2.3,0,3.7,0c17-0.5,33.6-0.5,50.6,0
	c1.4,0,2.4,0,3.8,0c3,0.1,5.6-0.6,8.4,1.1c2.3,4.8,2,9.3,0.4,14.3c-1.7,1.5-3.3,1.8-5,1.8c-18.9,0-37.8,0.4-57.2-0.2
	c-1.4,0-2.4,0-3.8,0C41.6,105.3,39.1,106,36.5,104.4z"/>
<path class="st1" d="M121.5,151.4c-0.4-4.7-0.4-9.1-0.4-14c1.9-2.4,5.5-0.8,7.4-3.8c1.7-0.8,2.9-0.6,4.6,0.2
	c2.6,1.8,5.1,1.4,7.6,1.4c15.7,0,31.5,0,47.2,0c2.5,0,5-0.3,7.6,1.3c0.4,4.7,0.4,9.1,0.4,14c-1.2,1.6-2.6,2-4.1,2
	c-11.3,0-22.6,0.6-34.3-0.5c-3.4-2.7-1-6-1.5-9.2c0.7-0.6,1.2-0.8,2.1-0.7c1.9,0.4,1.5,2.2,2.6,3c0.2,0,0.7,0.1,1,0.1
	c0.9-0.7,0-1.9,0.9-2.4c-0.4,0.2-0.5,0.3-0.9,0.4c-0.5,0-0.6,0-1.1-0.2c-1.2-1.1-2.4-1.4-4-0.9c-1.9,3,0.1,6.2-1.9,9.3
	c-7.2,1.9-14.2,0.9-21.6,0.9c-1.4,0-2.3,0-3.6,0C126.6,152.4,124.1,153,121.5,151.4z"/>
<path class="st1" d="M96.7,47.4c0.6-0.3,1.1-0.4,1.9-0.4c1.5-0.2,2.6-0.6,4.1-0.7c0.8,0.1,1.3,0.3,1.9,1c1.4,2.5,3.5,2.1,5.5,2.1
	c6.1,0,12.2,0,18.3,0c2.3,0,4.6-0.2,7,1.4c1.9,4.5,1.6,8.8,0.5,13.5c-2.4,2.6-5,2.3-8,1.4c-1.9-1.6-0.3-3.4-0.9-4.9
	c0.2,1.5-0.2,2.9-1.1,4.5c-7.6,2.4-15,1.1-22.9,1.2c-1.3,0-2.2,0-3.6,0c-2.8,0-5.3,0.5-7.9-1.1c-0.4-4.7-0.4-9.1-0.4-14
	c1.3-1.7,3-2,4.5-1.7C99.1,50.4,95.4,48,96.7,47.4z"/>
<path class="st1" d="M132.7,164.3c0.5-0.2,0.6-0.2,1.1-0.2c1.4,2.4,3.5,2.3,5.8,2.4c5.2,0.3,10.6-1,16,1.2c0.3,4.7,0.3,9.1,0.3,13.9
	c-1.1,1.6-2.6,2-4.1,2c-9,0.2-18.1,0.3-27.1,0c-1,0-1.9-0.3-3.2-1.2c-0.4-4.7-0.4-9.1-0.4-14c1.3-1.7,3-2,4.5-1.7
	c3.5,0.7-0.2-1.7,1.1-2.3c0.4-0.3,0.6-0.3,1-0.3C129.4,164.9,130.9,164.5,132.7,164.3z"/>
<path class="st0" d="M36.5,163.4c-0.4-4.7-0.4-9.1-0.4-14c2.1-2.3,4.5-1.8,7.4-1.8c1.4,0,2.3,0,3.7,0c8,0,15.6-1.2,23.4,1.1
	c0.4,4.7,0.4,9.1,0.4,14c-1.2,1.6-2.6,2-4.1,2c-9.1,0.2-18.1,0.3-27.2,0C38.7,164.6,37.7,164.2,36.5,163.4z"/>
<path class="st0" d="M63.5,50.6c0.4,4.7,0.4,9.1,0.4,14C59,68,53.6,66.3,48,66.5c-1.4,0-2.3,0-3.6,0c-2.8,0-5.3,0.5-7.9-1.1
	c-0.4-4.7-0.4-9.1-0.4-14c0.6-1,1.3-1.6,2.1-1.7C46.5,49.2,54.9,48.3,63.5,50.6z"/>
<path class="st2" d="M131.9,151.3c7.6-0.3,15.1-0.3,23.2-0.4c13.7,0,26.8,0.1,40.4,0.1c1.3,3.8-0.9,4-3.8,4
	c-18.9-0.1-37.8-0.1-57.2-0.1c-0.6-0.1-0.8-0.2-1.3-0.5c-0.4-0.3-0.6-0.4-0.9-0.8C131.8,152.8,131.6,152.2,131.9,151.3z"/>
<path class="st2" d="M195.9,136.5c-20,0.4-40,0.5-60,0.5c-1.3,0-3.8,1-2.9-2.8c0.2-0.7,0.4-0.7,0.8-0.9c19.6-0.2,39.1-0.2,58.5-0.3
	C194.5,133,196.4,133.1,195.9,136.5z"/>
<path class="st3" d="M156.7,63.6c-2.1,14.7-6.7,28.5-11.7,42.1c-2.6,6.9-8,10.8-15.7,12c-0.5-0.1-0.7-0.3-1.1-0.7
	c-0.5-0.6-0.6-1.1-0.6-1.9c0.2-0.5,0.4-0.7,0.8-1.2c8.5-2.8,12.7-8.8,14.9-16.9c3.5-12.8,8.2-25.2,10-38.8c0.5-0.7,0.8-1.1,1.5-1.5
	c0.5-0.3,0.8-0.4,1.3-0.5c0.6,0,0.8,0.1,1.3,0.3c0.2,1.1,0,1.9-0.3,3C156.2,61,156.6,62.2,156.7,63.6z"/>
<path class="st2" d="M99.2,89.7C82,90,65,90,47.4,90c-1.2-1.7,0.1-2.5,1.4-3.7c15.9-0.2,31.6-0.3,47.7-0.3
	C98,87,99.2,87.8,99.2,89.7z"/>
<path class="st4" d="M128.6,116.8c0.4,0.2,0.4,0.6,0.4,0.8c-6.3,0.2-12.6,0.2-19.4,0.2c1.6,1.8,3.2,0.9,4.9,1.3
	c-0.4,3.2-3.1,1.4-5.2,2c-6.7,0.1-13,0.1-19.8,0.1c-8.5-0.5-16.6-0.2-25.1-0.1c-2.1,0-3.8-0.1-5.9-0.2c-1-1-0.2-1.2,0.4-1.5
	c-0.5,0.1-1,0.3-1.7,0.7c-1,0.1-1.7-0.1-2.8-0.2c-0.6-3.2,1.4-4.1,4-4.3c3.2-0.2,6.3-0.1,9.5-0.1c17.8,0,35.6,0,53.4,0
	C123.7,115.6,126,115.3,128.6,116.8z"/>
<path class="st2" d="M36.1,163.5c11.3-0.4,22.6-0.5,34.4-0.4c0.9,2.6,0.3,4-2.8,4c-9.5-0.2-18.9-0.1-28.4,0
	C36.9,167,35.7,166.4,36.1,163.5z"/>
<path class="st2" d="M121.1,182.5c11.3-0.4,22.6-0.5,34.3-0.4c0.9,2.6,0.3,4-2.8,4c-9.5-0.1-18.9-0.1-28.4,0
	C121.9,186,120.7,185.4,121.1,182.5z"/>
<path class="st2" d="M63.9,50.5c-9,0.4-18,0.5-27.4,0.4c-0.9-2.6-0.3-4.1,2.8-4c7.1,0.2,14.3,0.1,21.4,0
	C63.1,46.9,64.3,47.6,63.9,50.5z"/>
<path class="st4" d="M102.3,46.6c-1,1.4-1.9,1.6-3.2,0.6c-0.1-3.1,0.1-5.9,0.5-9c1.4,2,0.7,4.3,0.8,6.6c0-2.1,0.2-4.3-0.3-6.7
	c0.7-6.7,6.3-6.7,10.5-6.9c11.3-0.5,22.6-0.7,34.2,0.4c-0.9,1.8-2.6,1.8-4.2,1.7c-8.4-0.2-16.9,0.9-25.3-1.1
	c-0.7-0.1,0.2,0.9,0.2,0.3c0-0.1,0.2-0.1,0.5-0.1c0.7,0,1.3,0.1,2.1,0.8c-1,2.5-3.2,2.1-5.1,2.3c-7.9,0.9-8.2,1.2-9.7,8.9
	C103.2,45.1,102.9,45.7,102.3,46.6z"/>
<path class="st2" d="M155.9,167.5c-6.8,0.4-13.6,0.3-20.3,0.6c-3.5,0.1-2.9-1.3-1.6-3.6c6.2-0.4,12.3-0.4,18.3-0.5
	C154.6,163.9,156.4,164.1,155.9,167.5z"/>
<path class="st3" d="M109.3,121.4c1.1-2.3,3.5-0.8,5.4-2c4.2,0.2,8,1.1,11.6,3.1c4,2.3,5.8,5.7,6.4,10.4c0.4,0.4,0.5,0.5,0.5,0.8
	c-0.2,0.2-0.2,0.3-0.2,0.3c-1.4,0-2.8,0-4.6-0.4c1.7-5-1.8-6.9-4.7-8.8C119.4,122.2,114.4,122.3,109.3,121.4z"/>
<path class="st2" d="M70.9,148.5c-7.7,0.4-15.4,0.5-23.5,0.5c-1.2-1.7,0.1-2.5,1.4-3.7c6.4-0.3,12.5-0.3,18.5-0.4
	C69.6,144.9,71.4,145.1,70.9,148.5z"/>
<path class="st4" d="M127.7,114.7c0.3,0.4,0.4,0.8,0.4,1.1c-1.7,1.1-3.6,0.7-5.4,0.7c-21.1,0-42.2,0-63.3,0c-2.1,0-4.4-0.6-6,2.3
	c-1.7,0.3-3-0.1-4.2-1.4c-0.3-2.5,1.6-2.6,3.4-3.6c6.1-1,11.7-0.6,17.3-0.6c16.6-0.1,33.2,0,49.7,0
	C122.2,113.2,124.9,112.9,127.7,114.7z"/>
<path class="st5" d="M53.1,119.4c-0.3-4,2.4-3.3,4.7-3.3c23.1,0,46.2,0,69.8,0c0.8,0.1,1,0.3,1.4,0.8c-23,0.2-46.1,0.2-69.3,0.1
	c-2.4,0-4.1,0.5-5.4,2.7C53.7,119.9,53.5,119.8,53.1,119.4z"/>
<path class="st4" d="M48.2,116.5c-2.2,4.1-0.9,8.2-1.1,12.1c-0.2,5.2-0.1,10.3-0.1,15.9c-0.7,1.1-1.5,1.2-2.7,0.7
	C44,135,44,124.9,44.1,114.5c0.3-0.6,0.5-0.8,1.1-0.9c0.6,0.2,0.8,0.3,1.1,0.9c-0.2,0.6-0.4,0.8-0.7,1.4c-0.1,8.8,0,17.2-0.1,25.6
	c0.1-8.3,0-16.7,0.1-25.5c0.3-1,0.7-1.3,1.7-1.5C48.2,115,48.5,115.5,48.2,116.5z"/>
<path class="st2" d="M46.9,65.3c5.5-0.3,10.8-0.3,16.6-0.2c1.1,3-0.1,4.2-3.2,4c-3.4-0.2-6.9-0.1-10.8-0.1c-0.6-0.1-0.8-0.2-1.3-0.5
	c-0.4-0.3-0.6-0.4-0.9-0.8C46.8,66.8,46.6,66.2,46.9,65.3z"/>
<path class="st3" d="M145.8,32.3c6.9,0.2,10.6,3.8,10.9,10.5c-0.4,0.4-0.6,0.5-1.2,0.7c-3.8-2.3-5.5-6.6-9.8-8.5
	c-0.3-0.5-0.4-0.8-0.4-1.4C145.4,33,145.5,32.8,145.8,32.3z"/>
<path class="st5" d="M145.8,32c0.2,0,0.2,0.5,0.2,0.7c-2.6,2.7-6,1-9.3,2.2c-1.2,0.2-2.1,0.3-3.3,0.2c-4.1-0.9-7.8-0.9-12-0.2
	c-1.3,0.1-2.1,0-3.1-0.7c-2.2-2.3-5.1-0.3-7.8-2.2c11.6,0,22.6,0,34.1,0C145.1,32,145.5,32,145.8,32z"/>
<path class="st4" d="M44.1,86.3c-0.3-5.9-0.4-11.4-0.6-17.9c0.9-1.5,1.9-1.5,3.2-0.9c0.4,0.4,0.6,0.7,0.5,1.2
	C47,74.4,47,79.7,47,85.5C46.4,87.4,45.5,87.6,44.1,86.3z"/>
<path class="st4" d="M99.2,86.4C99,80.7,99,75.3,99,69.5c-0.1-0.7-0.2-1,0-1.6c1.1-0.7,1.9-0.7,3.1-0.2c0.5,0.5,0.7,0.8,1,1.4
	c0.8,5.4,0.7,10.3,0,15.7C102.2,86.7,101.3,87.8,99.2,86.4z"/>
<path class="st5" d="M64.2,121.4c1.6-2.3,4-1.4,6.2-1.4c6,0.1,12.1-0.7,18.4,0.8c-1.7,1.7-3.9,0.9-6.4,1.1c-4.5-1-8.5-0.3-13-0.2
	C67.5,121.8,66,121.8,64.2,121.4z"/>
<path class="st2" d="M91.1,65.5c2.4-0.4,4.7-0.4,7.4-0.5c0.9,0.5,0.8,1.1,0.5,2c-0.3,0.4-0.4,0.6-0.7,1c-0.4,0.3-0.5,0.4-1,0.7
	C94.8,68.3,90.9,71.1,91.1,65.5z"/>
<path class="st2" d="M36.1,65.5c2.4-0.4,4.7-0.5,7.5-0.5c1.1,1,0.6,1.7-0.2,2.7C43.1,67.9,43,68,43,68c-0.2,0.2-0.3,0.3-0.7,0.6
	C39.8,68.3,36,71.1,36.1,65.5z"/>
<path class="st2" d="M128,134c0.4,6-4.2,1.7-6.4,2.9c-1.4-4.7,1.9-4,5-3.9c0.6,0.2,0.8,0.3,1.2,0.6C128,134,127.9,134,128,134z"/>
<path class="st2" d="M121.1,151.5c2.4-0.4,4.7-0.4,7.4-0.5c0.9,0.5,0.8,1.2,0.6,2.1c-0.2,0.5-0.3,0.6-0.7,1
	c-0.4,0.3-0.6,0.4-1.1,0.6C124.8,154.3,120.9,157.1,121.1,151.5z"/>
<path class="st2" d="M96.5,47.1c0.8,1.2,1.3,2.4,1.8,3.9c-2.3,0-4.4,0-6.8,0C90.2,46.3,93.4,47,96.5,47.1z"/>
<path class="st2" d="M126.5,164.1c0.8,1.2,1.3,2.4,1.8,3.9c-2.3,0-4.4,0-6.8,0C120.2,163.3,123.4,164,126.5,164.1z"/>
<path class="st2" d="M36.1,104.5c2.4-0.4,4.7-0.5,7.5-0.5c1.2,1.7-0.1,2.5-1.3,3.6C39.7,107.4,35.9,110,36.1,104.5z"/>
<path class="st2" d="M44.2,89.7c-2.5,0.3-4.8,0.3-7.6,0.3c-1.3-4.6,1.8-4,5-3.9C43,87,44.2,87.8,44.2,89.7z"/>
<path class="st2" d="M44.2,148.7c-2.5,0.3-4.8,0.3-7.6,0.3c-1.3-4.6,1.8-4,5-3.9C43,146,44.2,146.8,44.2,148.7z"/>
<path class="st4" d="M132.2,154.7c-0.2,3.1-0.2,5.8-0.2,8.9c-0.7,1.7-1.5,2.1-2.9,0.7c-0.3-3.2-0.4-6.1-0.9-9.6
	c-0.3-0.6-0.3-0.7-0.2-0.8c1-0.8,2-1.1,3.5-0.6C132.1,153.8,132.2,154,132.2,154.7z"/>
<path class="st2" d="M45.3,113.6c-0.3,0.4-0.5,0.4-0.9,0.4c-0.3-1.7-0.4-3.4-0.4-5.5c0.1-2.6,1.4-2.2,3.1-1.6c1.5,2.2,2.2,4.5,3.2,7
	c-0.2,1.3-0.8,1.6-2,1.4c-0.8-0.2-1.2-0.2-2-0.2c-0.3-0.2-0.3-0.3-0.3-0.8c-0.9-1.9-0.4-3.5-0.4-4.7
	C44.9,110.4,45.8,111.9,45.3,113.6z"/>
<path class="st3" d="M47.4,108.3c-1.1-1.3-2-1.5-3.3-0.5c-0.6,0.2-1.1,0.2-1.8,0.1c-0.3-1.4,0.7-2.3,1.5-3.6
	c0.9-0.3,1.7-0.3,2.8-0.3c1.6,0.9,3.2,1.5,2.7,3.8C48.7,108.4,48.3,108.6,47.4,108.3z"/>
<path class="st4" d="M154.6,43.4c0.6-0.3,0.9-0.3,1.5-0.3c0.4,0,0.3,0.3,0.3,0.4c1.1,4.3,0.8,8.5-0.1,13.1c-0.4,0.7-0.6,1-1.1,1.3
	C152.1,53.4,153,48.6,154.6,43.4z"/>
<path class="st1" d="M44.4,149c-1-1.1-1.7-2.2-2.4-3.6c0.1-0.3,0.3-0.3,0.8-0.4c1.7,1,3.1,1.1,4.9,0.2c0.5-0.2,0.6-0.2,1.1-0.2
	c0.2,1.4-0.8,2.3-1.7,3.6C46.2,149,45.5,149,44.4,149z"/>
<path class="st1" d="M99.4,90c-1-1.1-1.7-2.2-2.4-3.6c0.1-0.3,0.3-0.3,0.8-0.4c1.8,1.2,3.3,1.8,5.1-0.2c0.5-0.2,0.7-0.1,1.2,0.1
	c0.9,2-0.1,2.9-1.8,3.8C101.2,90,100.5,90,99.4,90z"/>
<path class="st1" d="M44.4,90c-1-1.1-1.7-2.2-2.4-3.6c0.1-0.3,0.3-0.3,0.8-0.4c1.7,1,3.1,1.7,4.9,0.2c0.5-0.2,0.7-0.2,1.1-0.2
	c0.2,1.4-0.8,2.3-1.7,3.6C46.2,90,45.5,90,44.4,90z"/>
<path class="st3" d="M69.5,122c3.6-1.8,7.7-0.9,12.2-0.3C78,122,74,122,69.5,122z"/>
<path class="st5" d="M156.3,57c-0.2-4.1-0.2-8.3-0.1-12.9c0.1-0.5,0.4-0.4,0.5-0.3c1.5,4.1,0.5,8.3,0.5,12.8
	C156.9,57,156.7,57,156.3,57z"/>
<path class="st4" d="M157.2,57c-0.2-4.1-0.2-8.1-0.3-12.7c2.4,3.4,0.5,7.7,1,12.2C157.8,57,157.4,57,157.2,57z"/>
<path class="st0" d="M47.7,145.1c-1.1,2.2-2.6,2.6-4.6,0.3c-0.2-0.3,0.3-0.3,0.6-0.4c1,0,1.8,0,2.9,0C47,145,47.5,145,47.7,145.1z"
	/>
<path class="st0" d="M128.7,164c1.1,0.3,1.9,0.8,3,0.1c0.3-0.1,0.7-0.1,1,0c-1.1,2.2-2.6,2.6-4.6,0.3C128,164.1,128.5,164,128.7,164
	z"/>
<path class="st0" d="M102.8,85.9c-1.1,2.3-2.6,2.8-4.6,0.5C98,86.1,98.5,86,98.7,86c1.1,0.3,1.9,0.8,3,0.1
	C102.2,85.9,102.4,85.8,102.8,85.9z"/>
<path class="st0" d="M47.7,86.1c-1.1,2.2-2.6,2.6-4.6,0.3C43,86.1,43.5,86,43.7,86c1.1,0.3,1.9,0.8,3,0.1C47,86,47.5,86,47.7,86.1z"
	/>
<path class="st5" d="M48,115.3c0.5-0.5,1.1-0.6,1.8-1c0.8-0.8,1.5-0.8,2.2,0.2c-0.9,0.9-1.8,1.5-2.9,2.3c-0.2,0.3-0.7,0.2-0.9,0.1
	C48,116.5,48,116,48,115.3z"/>
<path class="st0" d="M57.1,120.5c0.5-1.4,1.9-1.9,2.6-1.2c0.7,0.7-1.1,0.5-1.5,1.4C57.8,121,57.5,120.9,57.1,120.5z"/>
<path class="st4" d="M156.9,63.6c-1.2-0.7-1.1-1.9-0.2-3.3C157,61.1,157,62.1,156.9,63.6z"/>
<path class="st3" d="M42.3,68.9c-0.1-0.3,0-0.5,0.5-0.7c0.2-0.1,0.2,0.2,0.3,0.4C42.8,68.8,42.7,68.8,42.3,68.9z"/>
<path class="st1" d="M133.3,133.9c-0.2,0.1-0.3-0.3-0.3-0.5c0.2-0.2,0.3-0.3,0.8-0.3C133.9,133.4,133.7,133.6,133.3,133.9z"/>
<path class="st5" d="M47.3,69C47,69,47,68.6,47,68.3c0.1-0.4,0.3-0.5,0.7-0.5c0.3,0.1,0.4,0.2,0.4,0.3c0,0.1,0.3,0.4,0.1,0.6
	C47.9,68.9,47.7,68.9,47.3,69z"/>
<path class="st1" d="M128,133.8c-0.3,0.1-0.6,0-0.9-0.5c0.1-0.2,0.3-0.2,0.7-0.2C128.1,133.2,128,133.6,128,133.8z"/>
<path class="st3" d="M127.7,154.2c0.2-0.1,0.2,0.2,0.3,0.4c-0.1,0.2-0.3,0.3-0.7,0.3C127.1,154.6,127.3,154.4,127.7,154.2z"/>
<path class="st3" d="M48.3,68.9c-0.2,0-0.2-0.4-0.2-0.6c0.3-0.1,0.5,0,0.8,0.4C49,68.9,48.5,68.9,48.3,68.9z"/>
<path class="st5" d="M98.8,67.9c0.2,0.2,0.2,0.7,0.2,0.9c-0.2,0.2-0.4,0.2-0.8,0.1c-0.3-0.1-0.6-0.4-0.5-0.6
	c0.1-0.2,0.2-0.3,0.2-0.4C98.2,67.8,98.4,67.7,98.8,67.9z"/>
<path class="st3" d="M97.7,68.2c0.2-0.1,0.2,0.3,0.3,0.5s-0.5,0.3-0.7,0.2C97.1,68.6,97.3,68.4,97.7,68.2z"/>
<path class="st3" d="M132.8,154.2c0.5-0.1,0.8,0.1,1.1,0.5c0.1,0.2-0.4,0.2-0.6,0.2C132.9,154.7,132.7,154.6,132.8,154.2z"/>
<path class="st5" d="M133,154c0,0,0,0.4,0,0.7c-0.2,0.2-0.3,0.3-0.8,0.3c-0.3,0-0.3-0.4-0.3-0.7c0.1-0.4,0.3-0.5,0.7-0.5
	C132.9,153.9,133,154,133,154z"/>
<path class="st2" d="M109.4,104.1c1.3,3.7-0.9,4-3.8,4c-18.6-0.1-37.1-0.1-56.2-0.1c-0.5-1.4-1.5-2.3-2.3-3.6
	C67.7,104,88.3,104,109.4,104.1z"/>
<path class="st2" d="M104,86.4c2.3,0.2,6.1-2.4,5.9,3.1c-2.4,0.4-4.7,0.5-7.5,0.5C102.6,88.9,103.3,87.8,104,86.4z"/>
<path class="st6" d="M43.6,93.6c0.6,1,1.2,1.9,1.2,2.8c0,0.8-0.7,1.6-1.1,2.4c-0.6-0.6-1.1-1.2-1.8-1.7c-1.7-1.4,0.6-1.1,0.7-1.7
	C42.8,94.7,43.1,94.1,43.6,93.6z"/>
<path class="st6" d="M169.4,143c0.4,3.4-4.2,1.3-4.4,4.2c-1.5-1.7-1.4-3.5,0.2-5.4c0.4-0.2,0.6-0.1,1,0.1c0.6,0.3,0.9,0.5,1.5,0.7
	C168.4,142.7,168.8,142.8,169.4,143z"/>
<path class="st3" d="M172.6,141.5c5-1.5,3.3,2.8,4.4,5c-0.2,0.8-0.7,1-1.5,0.7c-2.5-0.9,0.6-3.6-2.2-4.2
	C172.6,142.6,172.4,142.2,172.6,141.5z"/>
<path class="st6" d="M155.8,150.5c-0.1,0.3-0.3,0.2-0.4,0.3c-0.3-3.2-1.3-6.5,0.8-9.7c1,0.2,1.2,0.6,0.9,1.5
	C155.1,145.2,157.8,148,155.8,150.5z"/>
<path class="st6" d="M175.3,147.4c0.3-0.4,0.7-0.4,1.4-0.5c3.9-0.1-0.1-4.1,2.7-4.5C181,148.1,181,148.1,175.3,147.4z"/>
<path class="st3" d="M186.3,147.7c-1,0.3-1.8,0.3-3,0.2c-0.8-2-1.1-4,0.2-5.9c0.6,0,0.8,0,1.3,0c0.9,0.8,1.2,1.6,0.9,2.8
	c-0.2,0.8-0.2,1.2,0.1,1.9c0.2,0.2,0.2,0.2,0.2,0.2C186.2,147.1,186.3,147.3,186.3,147.7z"/>
<path class="st7" d="M141.7,144.2c0-1.2-0.1-2.1-0.2-3c2.8,2.1,2.9,2.9,0.8,6.6C141,146.8,141.2,145.7,141.7,144.2z"/>
<path class="st6" d="M141.5,143.9c1.6,1,0.1,2.2,0.5,3.5c-1.2,0.7-2.3,0.8-3.7-0.2c-0.7-0.6-0.8-1.1-0.4-1.9
	C139.8,146.6,140,143.8,141.5,143.9z"/>
<path class="st3" d="M132.9,153.6c-0.2,0.3-0.3,0.4-0.7,0.4c-1.3,0-2.3,0-3.7-0.1c-0.2-0.8,0.1-1.6,0.4-2.6c0.9-0.3,1.6-0.3,2.8-0.3
	C132.3,151.8,132.6,152.5,132.9,153.6z"/>
<path class="st8" d="M153.9,143.4c0,1.7,0.4,3-0.5,4.2C151.4,144.5,151.5,143.7,153.9,143.4z"/>
<path class="st8" d="M134.2,144.8c-1.6-0.1-2.8-1.2-2-2.1c0.8-1,2.6-1.3,4.1-0.7c-0.5,0.4-0.9,0.8-1.5,1.4
	C134.7,144,134.7,144.4,134.2,144.8z"/>
<path class="st6" d="M183.9,141.7c-1.7,1.8-0.4,3.8-1,5.9c-2-1.6-1.3-4.3-1.1-6.4C181.9,138.4,183.2,140.8,183.9,141.7z"/>
<path class="st3" d="M188.8,141.8c1.4,0.4,2.3,0.5,1.4,2.1c-1.9,0.5-3.9,1.7-4.4-1.5c0.2-0.4,0.2-0.3,0.2-0.3
	C186.7,141.3,187.6,141.5,188.8,141.8z"/>
<path class="st6" d="M161.5,143.3c0.3-1.5,0.4-2.6,0.6-3.7c0.3,0,0.5,0,0.8,0c0,2.6,0,5.2,0,7.8c0,0-0.4,0.2-0.5,0.1
	c-0.2-0.2-0.4-0.4-0.6-1C161.2,145.3,161.1,144.5,161.5,143.3z"/>
<path class="st6" d="M146.2,145.2c-0.1,0.9,0.1,1.5-0.2,1.8c-0.8,1-0.9,0.1-1-0.4c-0.1-1.7,0-3.5,0-5.6
	C147.7,142.1,145.9,143.7,146.2,145.2z"/>
<path class="st8" d="M161.2,145.7c-0.8,0.8-1.8,1.6-1.8,1.5c-1.1-1-0.2-2.4-0.5-3.9c0.4-0.7,0.8-0.9,1.7-0.7
	c0.4,0.1,0.3,0.2,0.3,0.3C161.6,143.7,161.5,144.5,161.2,145.7z"/>
<path class="st6" d="M172.3,141.2c0.5,0.4,0.5,0.8,0.6,1.5c-1.6,1.5-0.1,3.5-2,5.6C171.3,145.3,169.9,143.2,172.3,141.2z"/>
<path class="st4" d="M134,145.2c0-0.6,0.1-0.9,0.5-1.3c0.8,0.8,1.8,1.1,3.2,1.2c0.4,0.5,0.3,0.9,0.3,1.7c-1.1,0.1-2.2-0.2-3.7-0.5
	C134,145.8,134,145.6,134,145.2z"/>
<path class="st6" d="M185.8,142c0.2,2.3,1.9,2,3.8,2c-0.3,2-2.2,0.4-3.4,1.7c-0.3,0.5-0.5,0.6-0.9,0.5c-0.3-1.2-0.3-2.3-0.2-3.7
	C185.1,142.1,185.6,142,185.8,142z"/>
<path class="st5" d="M160.8,142.5c-0.3,0.3-0.7,0.4-1.6,0.5c-0.8,0-1.3,0-2.1,0c-0.4-0.4-0.4-0.8-0.5-1.5
	C158.1,141,159.5,140.9,160.8,142.5z"/>
<path class="st6" d="M150,146.5c-0.1,0.6-0.2,0.7-0.3,0.8c-0.1,0.1-0.2,0.1-0.3,0.2c-0.9-1.8-0.7-3.6-0.2-5.7
	C150.8,143.2,149.7,144.7,150,146.5z"/>
<path class="st7" d="M169.6,142.8c-0.4,0.5-0.8,0.8-1.4,1.1c-0.6-0.3-0.8-0.6-0.9-1.4c0.1-0.5,0.2-0.7,0.5-1.2
	C168.5,141.6,169.1,142.1,169.6,142.8z"/>
<path class="st7" d="M186.4,148c-0.4-0.2-0.4-0.4-0.4-0.8c1.2-0.5,2.4-0.6,3.4,0.3C188.6,148.4,187.7,148.1,186.4,148z"/>
<path class="st6" d="M189.1,141.7c-0.7,0.4-1.5,0.5-2.8,0.4C186.6,140.5,187.8,140.9,189.1,141.7z"/>
<path class="st2" d="M161.2,146c-0.2-0.8-0.2-1.6-0.2-2.7c0-0.4,0.3-0.4,0.5-0.4c0.2,0.8,0.3,1.6,0.3,2.8
	C161.7,146.1,161.4,146.1,161.2,146z"/>
<path class="st6" d="M167.7,141.1c0.3,0.1,0.3,0.6,0.3,0.8c-0.4,0.5-0.9,0.7-1.7,0.4c-0.3-0.2-0.6-0.5-0.7-0.6
	C166.1,141.3,166.7,141.1,167.7,141.1z"/>
<path class="st4" d="M134,146c-0.1,0.3-0.3,0.6-0.8,0.9c-0.2-0.3,0.1-0.5,0.5-0.8C134,146,134,146,134,146z"/>
<path class="st7" d="M185.1,146.3c0.2-0.3,0.3-0.3,0.8-0.2c0.4,0.2,0.5,0.3,0.4,0.7C185.7,146.9,185.4,146.7,185.1,146.3z"/>
<path class="st4" d="M133.1,147.1c-0.1,0.2-0.4,0.8-0.3-0.1C132.9,146.9,133,147,133.1,147.1z"/>
<path class="st2" d="M134.4,65.1c1.1,3.1-0.2,4.1-3.3,4c-8.7-0.2-17.5-0.1-26.7-0.1c-0.6-0.1-0.8-0.2-1.3-0.5
	c-0.4-0.3-0.5-0.5-0.8-0.9c-0.5-0.8-0.7-1.4-0.5-2.3c6.4-0.3,12.7-0.2,19-0.3c1.8,0,3.7,0.5,5.5-1.3
	C128.6,66.2,131.5,64.6,134.4,65.1z"/>
<path class="st2" d="M104,47.5c9.2-0.4,18.2-0.4,27.3-0.5c2.2,0,4.1,0.1,3.6,3.5c-9.8,0.4-19.5,0.4-29.3,0.6
	C102.2,51.1,102.7,49.8,104,47.5z"/>
<path class="st4" d="M106.7,58.7c1.1,0.6,2.4-0.7,3.1,0.6c0.2,0.4,0.1,1.4-0.2,1.8c-1.5,1.9-3.2,0.3-5.1,0c-0.5-0.2-0.6-0.4-0.5-0.9
	c0.5-0.7,0.7-1.2,1-1.9C105.7,57.5,106.1,57.9,106.7,58.7z"/>
<path class="st6" d="M126.9,63.3c-0.3,0.1-0.4,0.1-0.3,0.1c-0.3-1.9-0.6-3.8-1.1-6.6C127.5,59.1,129.6,60.5,126.9,63.3z"/>
<path class="st8" d="M104.1,59.6c0,0.6,0,0.8,0,1.2c-0.5,1-1.5,1.5-1.8,0.4c-0.6-1.9-0.5-4,0.2-6.2
	C104.7,56.2,103.7,57.9,104.1,59.6z"/>
<path class="st4" d="M112.1,56.2c0.8-0.2,1.2-0.2,1.8-0.1c0.4,0.2,0.4,0.4,0.5,0.9c0,1.1-0.1,1.9,0.4,2.8C115.1,60,115,60,115,60
	c0.3,0.3,0.5,0.8,0.3,1.6c-1,0.4-1.8,0.4-3.1,0.4C111.4,60,111.4,58.2,112.1,56.2z"/>
<path class="st3" d="M101.7,65c0.7,0.8,1,1.5,1.3,2.6c-0.1,0.5-0.3,0.7-0.7,0.7c-1-0.2-1.7-0.2-2.8-0.2c-0.5,0-0.7,0-1.1-0.1
	c0-0.8,0.2-1.6,0.5-2.6C99.7,65,100.5,65,101.7,65z"/>
<path class="st6" d="M121,60.5c0.1-2-0.5-3.9,1.6-5.2c-0.2,2-0.4,3.9-0.6,5.9c0,0.1-0.3,0.3-0.4,0.3C121.4,61.3,121.2,61.1,121,60.5
	z"/>
<path class="st6" d="M99.8,58.1c0.2-0.9,0.1-2.5,0.9-1.2c0.7,1.2,0.1,3,0.1,4.8C99.4,60.7,100,59.5,99.8,58.1z"/>
<path class="st7" d="M112.1,55.9c0.3,1.7,0.1,3.4-0.2,5.5C110.7,59.9,110.6,57.9,112.1,55.9z"/>
<path class="st6" d="M97,59c0,1-0.1,1.6-0.2,2.7c-1.4-1.6-1.1-2.9-0.6-4.2c0-0.1,0.2-0.1,0.3-0.2C96.7,57.8,96.8,58.2,97,59z"/>
<path class="st7" d="M114.5,57.3c-0.3-0.2-0.3-0.7-0.3-0.9c1.1-1.2,2.3-1.8,4.1-1.1c0.2,0.4,0.2,0.6-0.2,0.9c-1.1,0-1.8,0-2.6,0.8
	C115.1,57.2,115,57.4,114.5,57.3z"/>
<path class="st6" d="M106.9,58.5c-0.5,0.2-0.9-0.1-1.6-0.4c-0.1-0.9-0.7-2.2,0.7-2.2C107.4,56,106.7,57.3,106.9,58.5z"/>
<path class="st7" d="M119.5,60.1c-0.4,1-0.7,2.2-2,1.5c0.3-0.5,0.5-1.1,1-1.8C118.9,59.8,119.2,59.8,119.5,60.1z"/>
<path class="st7" d="M119.2,56.6c1.1,0.9,0.9,2.1,0.5,3.6c-0.3,0.2-0.5,0.1-0.8-0.2c-0.2-0.8-0.2-1.4-0.2-2.3
	C118.8,57.1,118.8,56.9,119.2,56.6z"/>
<path class="st6" d="M114.2,57.4c0.3-0.3,0.4-0.3,0.9-0.3c0.2,0.7,0.2,1.5,0.1,2.6C113.6,59.8,114.2,58.6,114.2,57.4z"/>
<path class="st6" d="M115.5,61.8c-0.4-0.3-0.5-0.7-0.6-1.5C116,60.2,116,60.9,115.5,61.8z"/>
<path class="st4" d="M112.3,53.7c-0.3,0-0.5-0.2-0.6-0.3C111.9,53.4,112.2,53.5,112.3,53.7z"/>
<path class="st7" d="M118.4,55.6c0.4,0,0.7,0.2,0.9,0.7c0,0.3-0.1,0.5-0.5,0.8c-0.5,0.1-0.8-0.1-1-0.7C118,56,118.1,55.9,118.4,55.6
	z"/>
<path class="st8" d="M135.6,177.2c0.3-1.5,0.1-2.7,0.5-3.8c0.7-1.8,2.8-2.3,4.2-2.5c1.1-0.2,1,2,0.6,3.3c-0.4,1.4,0.5,3-0.7,4.4
	c-2.3-1-0.6-3.3-1.8-5.1c-0.8,2.5,0.5,7-4.2,5.5c-3.4-1.1-2.4-4-1.8-6.7C135.7,172.9,132.2,177.1,135.6,177.2z"/>
<path class="st7" d="M126.7,173.3c0.2,1.1,0.2,2.5,0.1,4.4C125.1,176.8,123.9,175.2,126.7,173.3z"/>
<path class="st6" d="M150.5,178.3c-1.5,0.9-3.8,1.6-4.5,0c-0.8-1.8,0.9-1.1,1.9-0.7C148.7,177.9,149.5,177.9,150.5,178.3z"/>
<path class="st7" d="M127,178c1,0.1,2.5-1,2.6,0.5c0.1,0.9-1.5,0.6-2.6,0C126.8,178.2,126.9,178.1,127,178z"/>
<path class="st6" d="M129.7,172.8c-0.8,0.4-1.4,0.4-2.4,0.2c-0.3-0.1-0.3,0-0.3,0C127.5,171.2,128.7,172.1,129.7,172.8z"/>
<path class="st6" d="M129.9,173c1,0.2,1.4,0.7,0.7,1.6c-0.3-0.3-0.6-0.5-1-1.1C129.6,173.3,129.8,173.1,129.9,173z"/>
<path class="st8" d="M52.1,159.8c-2.3-3.2-0.8-7.5,2.5-8.1c1.5-0.3,1.7,1,1.7,1.8c-0.1,2-0.5,4-0.9,6.7c-2.1-1.9-1-4-1.9-5.8
	C53.1,156.4,52.7,158,52.1,159.8z"/>
<path class="st8" d="M62.4,153.2c0.8-1.9,1.9-3.6,2.5-0.5c0.4,2.2,0.5,4.7-0.6,7.8C62.2,158,63.6,155.4,62.4,153.2z"/>
<path class="st8" d="M46.9,155.2c0.4-1.2,0.7-2.9,1.7-1.3c0.9,1.3,0.7,3.2-0.2,4.7C46.3,158.4,47,156.8,46.9,155.2z"/>
<path class="st7" d="M41.7,154.2c0.2,1.1,0.2,2.5,0.1,4.5C40.2,157.8,38.9,156.2,41.7,154.2z"/>
<path class="st7" d="M42,159c1,0.1,2.6-1,2.7,0.5c0.1,0.9-1.5,0.6-2.7,0.1C41.7,159.3,41.9,159.1,42,159z"/>
<path class="st6" d="M44.7,153.8c-0.8,0.5-1.4,0.4-2.4,0.2c-0.3-0.1-0.3,0-0.3,0C42.5,152.2,43.7,153.1,44.7,153.8z"/>
<path class="st6" d="M44.9,154c1,0.2,1.4,0.8,0.7,1.6c-0.3-0.3-0.6-0.5-1-1.1C44.5,154.3,44.8,154.1,44.9,154z"/>
<path class="st8" d="M45,58.1c-0.3,1.5,0.6,3-1.2,3.7c-1.4-1.6-0.7-3.4-0.7-5c0-0.8,0.4-1.8,1.4-1.3C44.9,55.7,44.8,56.9,45,58.1z"
	/>
<path class="st3" d="M47.9,67.6c-0.2,0.3-0.3,0.4-0.7,0.4c-1.3,0-2.3,0-3.7-0.1c-0.2-0.8,0.1-1.6,0.4-2.6c0.9-0.3,1.6-0.3,2.8-0.3
	C47.3,65.8,47.6,66.5,47.9,67.6z"/>
<path class="st6" d="M57.2,56.3c0,2,0,3.6,0,5.7c-2.6-2.3,0.4-5.6-2.6-7.4c-0.7-0.4,1-1.1,1.4-1.2C58,53.4,56.8,55.1,57.2,56.3z"/>
<path class="st8" d="M49,59.9c-0.3,1.3-0.7,2.7-1.6,1.2c-0.7-1.2-1-3.2,1.2-4.7C48.7,57.6,48.8,58.6,49,59.9z"/>
<path class="st6" d="M40.8,58.9c0-1.4,0-2.3,0-3.3c1.3,2,1.5,3.9,0.5,6.8C41.1,60.9,40.9,60.1,40.8,58.9z"/>
<path class="st9" d="M94.2,118.7c-9.3,0.2-18.2,0.3-27.7,0.3c-0.6-0.2-0.8-0.3-0.8-0.7c9.2-0.2,18.2-0.1,27.6-0.1
	C94,118.3,94.3,118.4,94.2,118.7z"/>
<path class="st0" d="M94.3,118.9c-0.5-0.1-0.4-0.4-0.5-0.5c3.7-0.1,7.4-0.1,11.1-0.1c0,0.2,0,0.5,0,0.7
	C101.5,118.9,98.2,118.9,94.3,118.9z"/>
<path class="st0" d="M65.7,118c0.3,0,0.3,0.5,0.3,0.7c-0.9,0.2-1.9,0.2-3,0.2C63.5,117.4,64.6,118.2,65.7,118z"/>
<path class="st5" d="M99.9,37.9c2,2.5,0.7,5.2,0,7.9c0-2.3,0-4.7,0-7.5C99.9,37.9,100,37.9,99.9,37.9z"/>
<path class="st5" d="M46,115c0,9.3,0,18.6,0,27.9c-0.2,0-0.4,0-0.6,0c0-9.1,0-18.2,0.3-27.5C46,115.1,46,115,46,115z"/>
<path class="st5" d="M45.3,114c-0.2-1.6-0.2-3.2-0.2-5.4c1.3,1.8,0.6,3.3,0.9,5C46,114,45.6,114,45.3,114z"/>
<path class="st4" d="M146,33.8c-3,0.2-6,0.2-9.5,0.2c2.4-1.9,5.6-0.5,9-1C146,33.2,146,33.3,146,33.8z"/>
<path class="st4" d="M132.7,33.7c-3.4,0.3-7,0.3-11.1,0.3C124.7,32.2,128.6,33,132.7,33.7z"/>
<path class="st5" d="M45,72.7c0-1,0.1-1.7,0.1-2.3c0.2,0,0.3,0,0.5,0c0,4.5,0,9,0,13.5c-0.2,0-0.4,0-0.7,0C45,80.3,45,76.7,45,72.7z
	"/>
<path class="st5" d="M101,75.2c0,3.2,0,5.9,0,8.7c-0.3,0-0.5,0-0.8,0c0-4.5,0-9.1,0-14C101.5,71.6,100.8,73.3,101,75.2z"/>
<path class="st5" d="M102,68.3c0.2-0.3,0.3-0.3,0.8-0.4c0.3,0,0.3,0.1,0.4,0.1c0,0.1,0.3,0.4,0.1,0.6c-0.3,0.2-0.5,0.2-0.9,0.3
	C102,69,102,68.5,102,68.3z"/>
<path class="st5" d="M130.7,156.3c0.2,2,0.2,3.8,0.2,5.5C129.9,159.9,129.6,158,130.7,156.3z"/>
<path class="st3" d="M103.3,68.9c-0.2,0-0.2-0.4-0.2-0.6c0.3-0.1,0.5,0,0.8,0.4C104,68.9,103.5,68.9,103.3,68.9z"/>
<path class="st4" d="M166,142.4c0.5-0.4,0.9-0.3,1.7-0.3c0.4,0.5,0.4,0.9,0.4,1.6C167.1,143.8,165.9,144.4,166,142.4z"/>
</svg>
